<svg width="290" height="213" viewBox="0 0 290 213" fill="none" xmlns="http://www.w3.org/2000/svg">
<path d="M147.838 211.352V178.115V142.386V139.783V131.234V61.7693V50.5918H156.838V60.7959V66.1625V67.4237V132.677V133.465V142.365V170.878V212.592L147.838 211.352Z" fill="#9DB8D6"/>
<path d="M128.148 0.171847C131.128 0.461847 135.268 1.21183 138.118 1.96183C142.928 3.20183 147.068 4.99184 157.258 10.1618L163.538 13.3818L165.958 13.4418C167.698 13.5118 169.688 13.3518 173.008 12.9218C177.208 12.3618 178.318 12.2918 184.878 12.2918C194.728 12.2718 199.838 12.7418 213.808 14.9818C220.118 15.9818 224.298 16.9518 226.668 17.9418C231.848 20.1118 242.378 25.8318 246.698 28.8418C257.408 36.3018 261.618 40.8919 272.128 56.6819C276.968 63.9419 278.818 67.6218 279.178 70.7618C279.338 72.0118 279.968 72.9818 283.428 77.1418C286.928 81.3718 288.198 83.4319 289.168 86.6219C289.758 88.5219 289.758 89.1719 289.218 90.0119C287.908 92.0019 285.668 91.6818 281.058 88.8518C278.908 87.5718 275.018 85.5319 273.598 84.9919C269.978 83.5919 263.768 83.1118 255.628 83.5618C240.278 84.4518 236.708 84.1318 229.748 81.2818C224.388 79.0618 223.348 78.7719 221.048 78.7519C218.408 78.7219 217.118 79.1518 211.668 81.9618C200.658 87.6118 198.648 88.5819 195.398 89.8719C191.808 91.3019 187.618 92.5418 184.438 93.1718C177.998 94.4418 173.538 94.1718 163.188 91.8618C160.698 91.3218 157.898 90.7518 156.978 90.6018C155.148 90.3018 153.658 89.7418 153.198 89.1918C152.948 88.9018 153.108 88.7918 154.438 88.4518C157.018 87.7718 161.088 86.2319 168.388 83.2519C179.078 78.8619 181.178 77.7319 183.798 74.9319C185.178 73.4319 186.508 71.4719 186.288 71.2419C186.018 70.9719 182.358 70.7618 180.478 70.9518C178.378 71.1518 168.268 72.8218 160.748 74.2218C147.598 76.6718 134.458 81.1218 122.168 87.2918C115.318 90.7318 102.568 99.3019 95.8384 105.002C91.5884 108.592 86.4584 113.502 82.5284 117.712C77.6284 122.952 76.6484 124.132 72.0884 130.212C70.0784 132.902 67.6784 136.052 66.7784 137.222C63.5684 141.312 57.5584 149.702 56.9484 150.952C56.0684 152.732 56.1084 154.342 57.1484 157.982C58.2284 161.802 59.0884 166.302 59.3884 169.902C59.9584 176.502 58.3284 185.592 55.6184 190.972C55.1884 191.852 54.6684 192.582 54.4884 192.582C54.0784 192.582 53.2184 191.062 52.5484 189.182C52.1684 188.122 51.4384 186.972 49.9684 185.072C46.5584 180.662 44.9984 177.452 44.7284 174.192C44.6584 173.362 44.5484 172.682 44.4984 172.682C44.4484 172.682 43.8184 172.932 43.0784 173.242C38.0584 175.352 30.9384 176.362 19.2284 176.632C12.3584 176.792 2.1684 176.482 1.0784 176.072C0.6984 175.932 0.358398 175.732 0.358398 175.622C0.358398 175.532 0.948392 175.072 1.64839 174.602C3.83839 173.152 6.23839 171.282 8.94839 168.832C21.6084 157.532 24.5884 155.242 30.5284 152.332C33.3784 150.922 36.1384 149.912 41.9484 148.142C43.0084 147.832 44.3384 147.262 44.9284 146.902C46.8684 145.682 47.1184 145.052 49.1784 135.822C51.2384 126.552 54.8084 113.612 57.4284 106.022C64.9084 84.2019 75.7384 65.5918 88.6184 52.4018C93.2984 47.6118 96.8884 44.4718 106.628 36.6918C109.768 34.1818 110.018 33.9118 111.558 31.5818C113.638 28.3918 114.388 26.6718 114.748 24.4618C115.088 22.1518 114.748 20.0018 113.708 17.8118C112.398 15.0718 111.038 14.1218 104.848 11.5918C100.098 9.67183 97.6384 8.11186 96.2584 6.18186L95.5084 5.17185L96.3684 4.60184C99.5284 2.52184 103.508 1.28183 109.638 0.461825C112.848 0.0318255 125.008 -0.168153 128.168 0.171847H128.148Z" fill="#9DB8D6"/>
</svg>
