<svg width="231" height="258" viewBox="0 0 231 258" fill="none" xmlns="http://www.w3.org/2000/svg">
<path d="M127.838 87.5918V257.592C124.835 257.543 121.841 257.493 118.838 257.444V87.5918H127.838Z" fill="#FFDF8E"/>
<path d="M127.629 94.9616C125.379 94.6316 123.249 94.4516 121.199 93.9816C118.849 93.4416 116.649 93.9416 114.339 94.2016C109.239 94.7816 104.109 95.1516 98.9787 95.2316C94.0487 95.3116 89.1087 94.9916 84.1787 94.7216C82.4387 94.6216 80.7087 94.1315 78.9787 93.7915C77.8187 93.5615 77.1487 92.8616 76.7587 91.7116C75.3087 87.3916 75.0387 83.0616 76.4787 78.6016C71.1087 75.6816 65.9787 72.3216 59.7187 71.6416C56.8187 71.3316 54.0887 72.1816 51.2987 72.7716C46.0587 73.8816 42.1887 77.1216 38.4887 80.6416C32.9787 85.8916 27.5687 91.2315 22.0087 96.4115C20.3287 97.9815 18.3787 99.3116 16.3887 100.502C13.3787 102.292 11.3987 101.652 10.1787 98.3516C9.35869 96.1316 8.7987 93.7615 8.5287 91.4115C7.6487 83.6715 8.3387 75.9616 9.5887 68.3016C9.7787 67.1016 10.4687 65.9216 11.1587 64.8916C11.7587 63.9816 11.9887 63.2016 11.4787 62.2416C11.2687 61.8616 11.0887 61.4516 10.8387 61.0916C5.7787 53.8416 3.18871 45.6216 1.53871 37.0816C1.02871 34.4516 0.908709 31.6916 1.03871 29.0016C1.29871 23.7916 4.33869 21.7816 9.48869 23.0316C14.3987 24.2216 18.7287 26.6516 22.9387 29.2916C28.7787 32.9516 34.5187 36.7516 40.3187 40.4816C45.1687 43.6116 50.4887 45.5116 56.1787 46.4416C58.4887 46.8116 60.7087 46.3816 62.7287 45.3716C65.5087 43.9716 68.1787 42.3416 70.8587 40.7616C75.9387 37.7616 81.2287 35.2016 86.7487 33.1016C87.1187 32.9616 87.4687 32.7816 88.0387 32.5316C86.1587 30.0516 84.4787 27.5716 82.5287 25.3216C78.2287 20.3616 73.7687 15.5516 69.4587 10.6116C68.4187 9.43161 67.5387 8.05158 66.8387 6.64158C65.9287 4.81158 66.5287 3.42157 68.5387 3.01157C71.9087 2.31157 75.3187 1.72158 78.7387 1.39158C89.7887 0.351578 100.879 0.421617 111.959 0.681617C120.989 0.901617 130.019 1.22158 138.969 2.58158C148.019 3.96158 156.809 6.16157 164.869 10.6916C171.369 14.3516 176.389 19.4116 179.849 26.0016C180.089 26.4516 180.649 26.8816 181.149 27.0416C190.669 30.1316 199.379 34.7316 207.169 40.9716C215.959 48.0316 223.209 56.3616 228.039 66.6016C228.869 68.3516 229.329 70.2716 229.999 72.1116C230.599 73.7816 230.119 75.1216 228.689 76.0516C225.399 78.1716 222.189 80.4716 218.719 82.2616C209.709 86.9216 200.119 90.0516 190.199 92.2016C181.549 94.0816 172.799 95.1316 163.949 95.3716C163.209 95.3916 162.849 95.6416 162.499 96.3016C159.089 102.802 155.769 109.352 152.149 115.732C149.819 119.822 147.059 123.692 143.149 126.522C140.999 128.082 138.599 129.122 135.869 128.862C132.549 128.562 130.609 126.332 129.119 123.672C126.879 119.662 125.629 115.292 124.909 110.782C124.069 105.582 124.969 100.622 127.229 95.8916C127.349 95.6416 127.459 95.3916 127.659 94.9716L127.629 94.9616Z" fill="#FFDF8E"/>
</svg>
