<svg width="307" height="197" viewBox="0 0 307 197" fill="none" xmlns="http://www.w3.org/2000/svg">
<path d="M137.838 196.099V91.9447V82.5918H146.838V90.8446V132.636V138.886V196.592L137.838 196.099Z" fill="#FFDF8E"/>
<path d="M181.878 104.072C177.008 103.372 175.928 99.1022 173.988 95.7322C172.768 93.6022 171.558 93.0322 169.208 93.9722C164.028 96.0622 158.748 97.8821 153.508 99.8021C152.078 100.332 150.838 100.822 149.468 99.3122C148.938 98.7322 147.278 98.8322 146.248 99.0722C141.798 100.142 137.398 101.432 132.948 102.522C131.818 102.792 130.288 103.082 129.448 102.552C125.328 99.9521 120.918 101.252 116.608 101.272C113.708 101.292 110.828 101.572 107.928 101.602C106.748 101.612 105.288 101.652 104.448 101.022C99.9783 97.6722 94.7483 98.6722 89.7783 98.1922C87.8983 98.0022 85.9583 98.2221 84.0983 97.9221C82.7883 97.7221 80.9983 97.3222 80.3983 96.3922C78.6583 93.6722 76.0083 93.2422 73.2783 92.5822C69.0683 91.5522 64.5883 91.2422 61.2483 87.8222C59.9683 86.5122 58.5483 86.8922 57.5983 88.6022C56.9183 89.8222 56.0683 90.9421 55.3883 92.1621C44.4483 111.762 26.0283 118.632 5.29826 121.422C0.698262 122.032 -0.771726 120.322 0.498274 115.912C1.41827 112.722 2.71826 109.432 4.63826 106.762C14.5583 92.9322 26.4983 81.1222 41.8983 71.5122C39.1983 69.0822 36.6583 66.8822 34.2183 64.5822C32.2483 62.7422 30.3883 60.7922 28.4983 58.8722C26.8283 57.1822 26.6983 55.5722 28.9183 54.2522C31.5483 52.6922 32.0483 50.5422 30.7683 47.8822C29.5483 45.3722 30.6883 44.0922 32.9383 43.0022C46.6783 36.3622 60.2783 29.4522 74.0883 22.9822C92.6083 14.2922 111.478 6.15217 131.598 2.20217C141.948 0.172169 152.858 0.572213 163.518 0.622213C175.368 0.682213 187.218 1.18222 198.958 3.63222C214.338 6.85222 227.728 13.8622 240.348 22.9622C248.638 28.9422 257.778 33.5522 268.128 34.8822C273.858 35.6322 279.718 35.4621 285.408 36.4221C295.288 38.0621 302.808 42.9122 306.088 53.0922C307.598 57.7822 306.808 61.8922 304.898 65.1122C301.928 65.2522 299.488 65.0121 297.248 65.5421C286.788 68.0221 276.268 69.3322 265.488 68.4022C261.148 68.0322 256.758 68.3422 251.558 68.3422C252.798 69.5222 253.378 70.1422 254.028 70.6822C257.928 73.9522 261.788 77.2822 265.778 80.4422C272.518 85.8022 277.378 92.4822 280.438 100.492C282.038 104.682 283.738 108.842 285.018 113.122C285.398 114.392 284.518 116.052 284.218 117.522C282.978 117.062 281.548 116.862 280.538 116.102C271.458 109.252 262.678 101.972 253.328 95.5122C247.308 91.3522 240.488 88.3422 234.018 84.8122C230.868 83.0922 227.638 81.5122 224.608 79.6122C222.928 78.5622 221.558 77.7522 219.998 79.5922C219.938 79.6622 219.838 79.7122 219.758 79.7622C213.218 83.9922 212.418 86.4122 215.188 93.8422C215.878 95.7122 216.478 97.6922 217.568 99.3222C222.678 106.992 221.388 114.892 217.868 122.422C214.778 129.062 211.328 135.742 206.858 141.482C198.288 152.502 189.438 163.412 179.638 173.312C171.758 181.272 162.308 187.692 153.538 194.782C153.008 195.212 152.358 195.662 151.708 195.762C149.688 196.082 147.648 196.242 145.608 196.472C145.628 194.692 145.438 192.872 145.708 191.132C147.818 177.782 153.478 165.632 158.678 153.342C163.808 141.222 168.708 129.002 174.078 117.002C176.048 112.592 179.078 108.652 181.898 104.082L181.878 104.072Z" fill="#FFDF8E"/>
</svg>
