<svg width="230" height="137" viewBox="0 0 230 137" fill="none" xmlns="http://www.w3.org/2000/svg">
<path d="M114.838 134.715V91.1316V88.5918H123.838V91.3725V136.592L114.838 134.715Z" fill="#9DB8D6"/>
<path d="M126.648 95.0116C124.398 94.6716 122.268 94.4916 120.218 94.0216C117.868 93.4816 115.668 93.9816 113.358 94.2516C108.268 94.8316 103.128 95.1915 97.9985 95.2815C93.0685 95.3615 88.1285 95.0416 83.1985 94.7616C81.4585 94.6616 79.7285 94.1715 77.9985 93.8315C76.8385 93.6015 76.1685 92.9116 75.7785 91.7516C74.3285 87.4316 74.0585 83.1016 75.4885 78.6516C70.1185 75.7216 64.9885 72.3715 58.7285 71.6915C55.8285 71.3715 53.0985 72.2315 50.3085 72.8115C45.0585 73.9215 41.1985 77.1615 37.4985 80.6915C31.9885 85.9315 26.5785 91.2715 21.0185 96.4615C19.3385 98.0215 17.3885 99.3615 15.3985 100.541C12.3885 102.341 10.4085 101.692 9.18847 98.4016C8.35847 96.1816 7.80846 93.8115 7.53846 91.4615C6.65846 83.7115 7.34846 76.0015 8.59846 68.3415C8.79846 67.1515 9.47847 65.9715 10.1685 64.9315C10.7685 64.0315 10.9985 63.2415 10.4885 62.2915C10.2785 61.9015 10.0985 61.5016 9.84846 61.1416C4.78846 53.8916 2.19847 45.6716 0.548475 37.1316C0.0384746 34.4916 -0.0815255 31.7315 0.0484745 29.0515C0.318475 23.8315 3.34847 21.8315 8.49847 23.0715C13.4185 24.2715 17.7385 26.7015 21.9485 29.3415C27.7885 33.0015 33.5285 36.7915 39.3285 40.5315C44.1785 43.6515 49.4985 45.5515 55.1885 46.4815C57.4985 46.8615 59.7185 46.4315 61.7385 45.4115C64.5185 44.0115 67.1885 42.3915 69.8685 40.8015C74.9485 37.8015 80.2385 35.2416 85.7585 33.1416C86.1285 33.0116 86.4785 32.8315 87.0485 32.5715C85.1685 30.1015 83.4885 27.6215 81.5385 25.3615C77.2385 20.4115 72.7785 15.5915 68.4685 10.6615C67.4285 9.47147 66.5485 8.09149 65.8485 6.68149C64.9385 4.86149 65.5385 3.47149 67.5485 3.05149C70.9185 2.36149 74.3285 1.7615 77.7485 1.4415C88.7985 0.391501 99.8885 0.46154 110.978 0.73154C120.008 0.94154 129.038 1.26156 137.988 2.63156C147.038 4.00156 155.828 6.21155 163.888 10.7415C170.388 14.3915 175.408 19.4515 178.868 26.0415C179.108 26.5015 179.668 26.9215 180.168 27.0815C189.688 30.1715 198.398 34.7716 206.188 41.0216C214.978 48.0716 222.228 56.4016 227.058 66.6516C227.888 68.4016 228.348 70.3216 229.018 72.1516C229.618 73.8216 229.138 75.1615 227.708 76.0915C224.418 78.2215 221.208 80.5115 217.738 82.3115C208.728 86.9715 199.138 90.0915 189.218 92.2415C180.568 94.1215 171.818 95.1715 162.968 95.4115C162.228 95.4315 161.868 95.6815 161.518 96.3515C158.108 102.842 154.798 109.392 151.168 115.772C148.838 119.872 146.078 123.732 142.168 126.572C140.018 128.132 137.618 129.161 134.888 128.911C131.578 128.601 129.628 126.382 128.138 123.722C125.898 119.702 124.648 115.332 123.928 110.822C123.088 105.622 123.988 100.671 126.248 95.9315C126.368 95.6915 126.478 95.4416 126.678 95.0116H126.648Z" fill="#9DB8D6"/>
</svg>
