<svg width="290" height="194" viewBox="0 0 290 194" fill="none" xmlns="http://www.w3.org/2000/svg">
<path d="M154.838 66.5918V185.592C151.845 185.522 148.841 185.453 145.838 185.384V66.5918H154.838V66.5918Z" fill="#9DB8D6"/>
<path d="M127.799 1.08199C130.779 1.37199 134.919 2.12203 137.769 2.87203C142.579 4.11203 146.719 5.90198 156.909 11.072L163.189 14.2919L165.609 14.352C167.349 14.422 169.339 14.262 172.659 13.832C176.859 13.272 177.969 13.202 184.529 13.202C194.379 13.182 199.489 13.652 213.459 15.892C219.769 16.892 223.949 17.862 226.319 18.852C231.499 21.022 242.029 26.742 246.349 29.752C257.059 37.212 261.259 41.802 271.769 57.592C276.609 64.852 278.459 68.532 278.829 71.672C278.979 72.922 279.619 73.892 283.079 78.052C286.579 82.282 287.839 84.3419 288.819 87.5319C289.399 89.4319 289.399 90.082 288.859 90.922C287.549 92.912 285.309 92.592 280.699 89.762C278.559 88.482 274.669 86.4421 273.239 85.9021C269.629 84.5021 263.409 84.022 255.269 84.472C239.929 85.362 236.359 85.042 229.399 82.192C224.039 79.972 222.999 79.6819 220.689 79.6619C218.049 79.6319 216.759 80.062 211.309 82.872C200.309 88.522 198.289 89.4919 195.039 90.7819C191.449 92.2119 187.259 93.452 184.079 94.082C177.639 95.352 173.189 95.082 162.829 92.772C160.339 92.232 157.539 91.662 156.609 91.512C154.779 91.212 153.289 90.652 152.839 90.102C152.589 89.812 152.749 89.702 154.079 89.362C156.659 88.682 160.729 87.1419 168.029 84.1619C178.719 79.7719 180.819 78.642 183.449 75.842C184.829 74.342 186.159 72.3821 185.939 72.1521C185.669 71.8821 182.009 71.672 180.129 71.862C178.029 72.062 167.919 73.732 160.399 75.132C147.239 77.582 134.109 82.032 121.819 88.202C114.969 91.642 102.219 100.212 95.4888 105.912C91.2388 109.502 86.1088 114.412 82.1788 118.622C77.2788 123.862 76.2988 125.042 71.7388 131.122C69.7288 133.812 67.3288 136.962 66.4288 138.132C63.2188 142.222 57.2088 150.612 56.5988 151.862C55.7188 153.642 55.7588 155.252 56.7988 158.892C57.8888 162.712 58.7388 167.212 59.0388 170.812C59.6088 177.412 57.9788 186.502 55.2688 191.882C54.8388 192.762 54.3188 193.492 54.1388 193.492C53.7288 193.492 52.8688 191.972 52.1988 190.092C51.8188 189.032 51.0888 187.882 49.6188 185.982C46.2088 181.572 44.6488 178.362 44.3788 175.102C44.3088 174.272 44.1988 173.592 44.1488 173.592C44.0988 173.592 43.4688 173.842 42.7288 174.152C37.7088 176.262 30.5888 177.272 18.8788 177.542C12.0088 177.702 1.80882 177.392 0.728821 176.982C0.348821 176.842 0.00878906 176.642 0.00878906 176.532C0.00878906 176.442 0.598828 175.982 1.29883 175.512C3.48883 174.062 5.88882 172.192 8.59882 169.742C21.2588 158.442 24.2388 156.152 30.1888 153.242C33.0388 151.832 35.7888 150.822 41.5988 149.052C42.6588 148.742 43.9988 148.172 44.5788 147.812C46.5188 146.592 46.7688 145.962 48.8288 136.732C50.8888 127.462 54.4588 114.522 57.0788 106.932C64.5588 85.112 75.3888 66.502 88.2688 53.312C92.9488 48.522 96.5388 45.382 106.279 37.602C109.419 35.092 109.669 34.822 111.209 32.492C113.289 29.302 114.039 27.582 114.399 25.372C114.739 23.062 114.399 20.912 113.359 18.722C112.049 15.982 110.689 15.032 104.499 12.502C99.7488 10.582 97.2888 9.02201 95.9088 7.10201L95.1588 6.08199L96.0188 5.51204C99.1788 3.43204 103.159 2.19203 109.289 1.37203C112.499 0.942026 124.659 0.741986 127.819 1.08199H127.799Z" fill="#9DB8D6"/>
</svg>
