<svg width="1426" height="1425" viewBox="0 0 1426 1425" fill="none" xmlns="http://www.w3.org/2000/svg">
<path fill-rule="evenodd" clip-rule="evenodd" d="M1476.39 728.393C1473.73 777.133 1467.29 826.173 1458.66 874.833C1456.73 885.733 1454.68 896.593 1452.55 907.433C1450.78 916.403 1448.94 925.373 1446.99 934.323C1446.49 936.653 1445.98 938.983 1445.46 941.313C1441.9 957.363 1438.04 973.363 1433.83 989.263C1432.6 993.953 1431.33 998.623 1430.02 1003.29C1427.28 1013.14 1424.39 1022.95 1421.35 1032.69C1415.51 1051.46 1409.11 1069.99 1402.06 1088.19C1396.71 1102.05 1390.97 1115.72 1384.83 1129.15C1379.6 1140.61 1374.06 1151.9 1368.21 1162.98C1357.89 1182.52 1346.58 1201.44 1334.16 1219.57C1309.03 1256.27 1279.34 1289.77 1244.09 1318.78C1242.04 1320.47 1239.97 1322.14 1237.88 1323.79C1231.47 1328.88 1224.87 1333.83 1218.09 1338.62C1136.29 1396.41 1040.62 1417.17 940.6 1422.74C870.64 1426.63 798.55 1423.09 727.59 1419.59C721.28 1419.28 714.94 1418.99 708.58 1418.72C705.59 1418.6 702.59 1418.48 699.59 1418.36C675.8 1417.42 651.78 1416.72 627.69 1415.95C624.69 1415.85 621.7 1415.75 618.7 1415.65C568.93 1414 518.99 1411.9 470.41 1406.68L461.43 1405.68C417.09 1400.55 373.97 1392.67 333.23 1380.02L324.06 1377.09C314.79 1374.01 305.65 1370.68 296.66 1367.07C293.64 1365.85 290.65 1364.61 287.67 1363.33C245.6 1345.32 206.87 1320.76 172.99 1287.06C28.4403 1143.26 -26.6897 925.563 12.0103 729.003C13.1603 723.123 14.4003 717.273 15.7303 711.433C27.4703 659.683 49.7203 614.033 79.0303 572.533C86.9603 561.313 95.4103 550.393 104.31 539.733C182.99 445.463 296.82 371.933 398.74 292.533C562.78 164.733 716.77 -18.0773 927.04 1.44271C1081.08 15.7427 1206.57 114.333 1304.14 236.203C1326.68 264.363 1347.73 293.773 1367.3 323.673C1367.98 324.713 1368.66 325.753 1369.34 326.793C1380.62 344.133 1391.4 361.633 1401.69 379.153C1403.03 381.443 1404.37 383.733 1405.7 386.023C1412.15 397.143 1418.1 408.393 1423.57 419.773C1428.77 430.573 1433.54 441.493 1437.9 452.503C1454.95 495.503 1465.8 540.003 1471.8 585.393C1478.01 632.323 1479.04 680.203 1476.39 728.393V728.393Z" fill="white"/>
<path d="M288 1363.32V1277.97V1273H297V1278.45V1367L288 1363.32Z" fill="#9DB8D6"/>
<path d="M709 1318V1419C706.007 1418.94 703.003 1418.89 700 1418.83V1318H709V1318Z" fill="#9DB8D6"/>
<path d="M628 1197V1416C624.997 1415.94 622.003 1415.88 619 1415.81V1197H628Z" fill="#FFDF8E"/>
<path d="M324 1378.04V1325.52V1269.06V1264.95V1251.44V1141.67V1124H333V1140.13V1148.61V1150.6V1253.72V1254.96V1269.03V1314.09V1380L324 1378.04Z" fill="#9DB8D6"/>
<path d="M461 1406.39V1277.57V1266H470V1276.21V1327.9V1335.63V1407L461 1406.39Z" fill="#FFDF8E"/>
</svg>
