<svg width="574" height="454" viewBox="0 0 574 454" fill="none" xmlns="http://www.w3.org/2000/svg">
<path d="M558.441 394.304C524.467 471.434 414.935 477.4 237.05 391.159C149.941 348.923 30.9378 346.23 3.95241 251.34C-39.7887 97.427 290.053 -58.7045 473.338 21.9881C590.051 73.3816 584.721 334.602 558.408 394.314L558.441 394.304Z" fill="white"/>
<path d="M217.323 259.987C239.968 192.297 178.388 180.801 178.203 180.217C218.995 147.978 224.579 108.55 179.499 99.9539C119.177 89.1656 82.0348 134.798 82.0348 134.798C70.5793 136.334 67.9552 162.385 56.3902 194.478C42.0724 234.17 36.4704 269.141 51.751 273.71C54.0977 274.413 56.7643 274.605 59.615 274.024C54.5603 284.334 114.454 308.375 136.746 312.708C163.097 317.682 201.372 298.805 217.323 259.987ZM179.699 129.287C189.56 130.61 155.798 173.386 102.893 178.19C102.74 178.327 102.858 176.951 103.068 174.457C103.068 174.457 103.08 174.436 103.102 174.393C103.488 169.523 104.197 160.428 103.834 149.638C103.834 149.638 103.845 149.617 103.932 149.554C106.001 147.97 139.701 122.704 179.731 129.276L179.699 129.287ZM165.461 276.204C156.53 279.513 137.322 290.393 82.2458 252.53C82.7268 252.752 90.1441 237.893 93.6733 221.016C94.1143 218.859 94.4923 216.669 94.8053 214.5C94.8053 214.5 94.9903 214.406 95.4123 214.218C100.995 211.666 145.005 192.919 185.431 214.554C209.798 230.349 180.726 270.516 165.482 276.215L165.461 276.204Z" fill="#9DB8D6"/>
<path d="M278.314 370.797C267.484 367.371 266.628 353.614 268.511 333.848C268.526 333.558 268.216 333.424 268.03 333.625C236.043 367.237 221.501 342.39 220.873 341.25L220.851 341.239C214.07 330.641 215.707 315.005 223.486 289.055C232.115 260.373 241.501 234.878 257.039 238.85C275.793 243.622 258.038 268.679 250.65 297.219C248.603 305.13 246.812 312.444 245.111 318.854C244.94 319.443 245.513 320.012 246.097 319.827C253.381 317.236 272.899 287.374 277.661 279.977C280.646 275.588 284.219 272.833 290.319 273.722C308.374 276.397 303.452 297.785 299.772 324.562C296.069 351.435 294.822 376.085 278.367 370.852L278.314 370.797Z" fill="#9DB8D6"/>
<path d="M354.264 393.438C339.417 399.207 329.175 400.289 321.677 393.631C321.656 393.62 321.613 393.598 321.592 393.586C320.445 392.557 319.344 391.335 318.31 389.931C318.215 389.8 318.142 389.681 318.047 389.55C318.047 389.55 318.037 389.517 318.005 389.474C317.879 389.246 317.743 388.985 317.618 388.758C317.513 388.541 317.42 388.302 317.326 388.064C309.05 368.124 331.509 311.237 365 232.528C401.797 145.992 406.802 81.6171 427.432 83.351C457.599 85.8878 425.383 162.194 393.889 244.107C377.008 288.056 363.234 330.199 351.336 358.756C351.18 359.109 351.508 359.469 351.875 359.389C365.191 356.514 376.588 358.85 379.313 365.823C382.659 374.42 371.448 386.822 354.263 393.491L354.264 393.438Z" fill="#9DB8D6"/>
<path d="M525.382 385.902C517.279 386.413 507.328 363.379 486.868 332.747C477.049 318.024 464.131 307.388 456.768 298.224C438.35 371.823 427.13 427.17 410.058 420.828C391.605 413.961 411.28 344.05 436.163 255.912C461.046 167.773 477.181 93.5583 500.146 101.657C519.376 108.439 498.601 153.674 475.999 227.866C477.687 225.868 479.44 223.85 481.214 221.843C507.876 192.219 521.485 160.889 533.208 170.065C547.653 181.414 525.178 205.43 502.447 238.451C492.463 252.926 483.715 266.85 475.662 276.877C484.407 285.782 496.528 301.971 508.16 320.726C527.22 351.444 545.111 384.619 525.382 385.902Z" fill="#9DB8D6"/>
<path d="M330.437 55.4528C335.23 58.0767 341.241 56.3168 343.854 51.5451C346.478 46.7524 344.718 40.7408 339.946 38.128C335.153 35.5042 329.142 37.2641 326.529 42.0357C323.905 46.8284 325.665 52.84 330.437 55.4528Z" fill="#9DB8D6"/>
<path d="M469.389 65.1092C458.251 85.4658 439.249 68.6339 411.684 59.9375C398.143 55.6738 367.824 65.9651 360.71 48.2263C354.123 31.8204 386.008 19.8192 414.722 21.6021C443.447 23.362 483.241 39.7899 469.389 65.1092Z" fill="#9DB8D6"/>
</svg>
