<svg width="762" height="312" viewBox="0 0 762 312" fill="none" xmlns="http://www.w3.org/2000/svg">
<path d="M11.9995 199.5C23.2209 205.089 44.5 217 69.0002 221.886C90.6746 226.209 108.945 224.898 120 224.5C138.921 223.819 156.701 222.526 173.265 212.075C179.94 207.864 186.347 198.518 185.591 190.527C185.327 187.737 185.591 181.184 177.684 174.716C167.114 166.068 152.885 171.323 147.126 178.06C141.366 184.796 143.424 197.437 146.04 206.683C156.13 242.343 204.045 245.787 234.409 242.214C274.048 237.55 306.699 216.669 336.742 191.553C347.188 182.82 357.185 173.599 367.277 164.465C373.19 159.113 378.642 154.079 385.287 149.569C389.909 146.431 402.519 139.025 410.706 138.024C426.327 136.115 438.819 142.465 441.133 154.69C446.87 174.922 428.295 189.728 409.266 175.997C395.835 163.572 401.828 137.5 407.999 121.878C413.17 108.787 426.455 98.1925 438.987 92.5643C455.225 85.272 475.134 80.3911 492.594 77.5857C540.401 70.3929 570.242 101.547 613.211 103.177C650.184 104.58 681.591 86.0004 696.763 63.8167C709.104 45.7719 720.312 28.231 733.64 28.1891" stroke="#9DB8D6" stroke-width="2.3542" stroke-linecap="round"/>
<circle cx="94.8256" cy="208.826" r="16.1102" transform="rotate(-10.7195 94.8256 208.826)" fill="#9DB8D6"/>
<circle cx="60.8256" cy="202.826" r="16.1102" transform="rotate(-10.7195 60.8256 202.826)" fill="#B6DBC3"/>
<circle cx="168.917" cy="154.01" r="16.1102" transform="rotate(-10.7195 168.917 154.01)" fill="#B6DBC3"/>
<circle cx="193.917" cy="257.01" r="16.1102" transform="rotate(-10.7195 193.917 257.01)" fill="#B6DBC3"/>
<circle cx="368.917" cy="182.01" r="16.1102" transform="rotate(-10.7195 368.917 182.01)" fill="#B6DBC3"/>
<circle cx="132.917" cy="169.01" r="16.1102" transform="rotate(-10.7195 132.917 169.01)" fill="#FF8E8E"/>
<circle cx="28.8256" cy="189.826" r="16.1102" transform="rotate(-10.7195 28.8256 189.826)" fill="#FF8E8E"/>
<circle cx="129.826" cy="207.826" r="16.1102" transform="rotate(-10.7195 129.826 207.826)" fill="#FFDF8E"/>
<circle cx="198.917" cy="175.01" r="16.1102" transform="rotate(-10.7195 198.917 175.01)" fill="#FFDF8E"/>
<circle cx="194.917" cy="211.01" r="16.1102" transform="rotate(-10.7195 194.917 211.01)" fill="#9DB8D6"/>
<circle cx="155.917" cy="244.01" r="16.1102" transform="rotate(-10.7195 155.917 244.01)" fill="#FF8E8E"/>
<circle cx="310.917" cy="228.01" r="16.1102" transform="rotate(-10.7195 310.917 228.01)" fill="#FF8E8E"/>
<circle cx="236.917" cy="257.01" r="16.1102" transform="rotate(-10.7195 236.917 257.01)" fill="#FFDF8E"/>
<circle cx="275.917" cy="247.01" r="16.1102" transform="rotate(-10.7195 275.917 247.01)" fill="#9DB8D6"/>
<circle cx="342.917" cy="206.01" r="16.1102" transform="rotate(-10.7195 342.917 206.01)" fill="#FFDF8E"/>
<circle cx="374.917" cy="137.01" r="16.1102" transform="rotate(-10.7195 374.917 137.01)" fill="#9DB8D6"/>
<circle cx="497.915" cy="60.0098" r="16.1102" transform="rotate(-10.7195 497.915 60.0098)" fill="#9DB8D6"/>
<circle cx="403.917" cy="190.01" r="16.1102" transform="rotate(-10.7195 403.917 190.01)" fill="#9DB8D6"/>
<circle cx="456.917" cy="158.01" r="16.1102" transform="rotate(-10.7195 456.917 158.01)" fill="#FF8E8E"/>
<circle cx="431.917" cy="126.01" r="16.1102" transform="rotate(-10.7195 431.917 126.01)" fill="#FFDF8E"/>
<circle cx="395.917" cy="112.01" r="16.1102" transform="rotate(-10.7195 395.917 112.01)" fill="#B6DBC3"/>
<circle cx="444.917" cy="190.01" r="16.1102" transform="rotate(-10.7195 444.917 190.01)" fill="#B6DBC3"/>
<circle cx="457.915" cy="69.0098" r="16.1102" transform="rotate(-10.7195 457.915 69.0098)" fill="#FFDF8E"/>
<circle cx="537.915" cy="65.0098" r="16.1102" transform="rotate(-10.7195 537.915 65.0098)" fill="#B6DBC3"/>
<circle cx="422.917" cy="84.0103" r="16.1102" transform="rotate(-10.7195 422.917 84.0103)" fill="#FF8E8E"/>
<circle cx="579.915" cy="79.0098" r="16.1102" transform="rotate(-10.7195 579.915 79.0098)" fill="#FF8E8E"/>
<circle cx="709.915" cy="22.0098" r="16.1102" transform="rotate(-10.7195 709.915 22.0098)" fill="#FF8E8E"/>
<circle cx="619.915" cy="87.0098" r="16.1102" transform="rotate(-10.7195 619.915 87.0098)" fill="#9DB8D6"/>
<circle cx="657.915" cy="78.0098" r="16.1102" transform="rotate(-10.7195 657.915 78.0098)" fill="#FFDF8E"/>
<circle cx="684.915" cy="54.0098" r="16.1102" transform="rotate(-10.7195 684.915 54.0098)" fill="#B6DBC3"/>
</svg>
