<svg width="1155" height="654" viewBox="0 0 1155 654" fill="none" xmlns="http://www.w3.org/2000/svg">
<path d="M1093.05 89.7506C1082.88 105.982 1064.62 138.473 1036.57 164.371C1011.75 187.282 986.88 200.133 972.147 208.426C946.932 222.617 922.716 235.1 892.788 234.674C880.727 234.503 864.924 227.422 859.541 216.399C857.662 212.551 852.095 204.216 857.25 189.48C864.141 169.78 886.884 165.292 899.763 169.486C912.642 173.68 920.034 191.804 923.991 205.944C939.255 260.488 879.518 303.166 837.076 322.707C781.671 348.216 722.452 347.01 663.259 338.203C642.677 335.14 622.292 331.084 601.853 327.215C589.877 324.949 578.755 322.73 566.495 322.145C557.967 321.737 535.622 322.129 524.148 327.35C502.258 337.309 491.029 355.546 497.754 373.331C506.397 404.286 542.419 408.79 556.29 375.718C563.901 348.811 535.308 319.59 514.81 304.138C497.633 291.189 471.867 287.961 451.039 290.609C424.053 294.041 394.201 303.544 369.199 313.801C301.126 342.523 287.043 406.93 232.311 443.301C185.216 474.598 129.454 475.401 91.9896 458.566C61.5154 444.871 32.9198 430.931 15.5079 441.498" stroke="#9DB8D6" stroke-width="3.59783" stroke-linecap="round"/>
<circle r="24.6207" transform="matrix(-0.935362 0.353691 0.353691 0.935362 992.484 167.922)" fill="#FF8E8E"/>
<circle r="24.6207" transform="matrix(-0.935362 0.353691 0.353691 0.935362 1032.04 133.001)" fill="#9DB8D6"/>
<circle r="24.6207" transform="matrix(-0.935362 0.353691 0.353691 0.935362 852.181 155.493)" fill="#9DB8D6"/>
<circle r="24.6207" transform="matrix(-0.935362 0.353691 0.353691 0.935362 901.669 309.729)" fill="#9DB8D6"/>
<circle r="24.6207" transform="matrix(-0.935362 0.353691 0.353691 0.935362 613.706 351.397)" fill="#9DB8D6"/>
<circle r="24.6207" transform="matrix(-0.935362 0.353691 0.353691 0.935362 911.079 146.361)" fill="#FFDF8E"/>
<circle r="24.6207" transform="matrix(-0.935362 0.353691 0.353691 0.935362 1063.41 90.5458)" fill="#FFDF8E"/>
<circle r="24.6207" transform="matrix(-0.935362 0.353691 0.353691 0.935362 946.046 194.513)" fill="#B6DBC3"/>
<circle r="24.6207" transform="matrix(-0.935362 0.353691 0.353691 0.935362 829.808 206.782)" fill="#B6DBC3"/>
<circle r="24.6207" transform="matrix(-0.935362 0.353691 0.353691 0.935362 863.704 250.542)" fill="#FF8E8E"/>
<circle r="24.6207" transform="matrix(-0.935362 0.353691 0.353691 0.935362 940.861 262.491)" fill="#FFDF8E"/>
<circle r="24.6207" transform="matrix(-0.935362 0.353691 0.353691 0.935362 725.999 365.156)" fill="#FFDF8E"/>
<circle r="24.6207" transform="matrix(-0.935362 0.353691 0.353691 0.935362 845.611 343.995)" fill="#B6DBC3"/>
<circle r="24.6207" transform="matrix(-0.935362 0.353691 0.353691 0.935362 786.784 362.037)" fill="#FF8E8E"/>
<circle r="24.6207" transform="matrix(-0.935362 0.353691 0.353691 0.935362 666.741 361.972)" fill="#B6DBC3"/>
<circle r="24.6207" transform="matrix(-0.935362 0.353691 0.353691 0.935362 581.802 298.924)" fill="#FF8E8E"/>
<circle r="24.6207" transform="matrix(-0.935362 0.353691 0.353691 0.935362 348.265 295.118)" fill="#FF8E8E"/>
<circle r="24.6207" transform="matrix(-0.935362 0.353691 0.353691 0.935362 574.444 389.724)" fill="#FF8E8E"/>
<circle r="24.6207" transform="matrix(-0.935362 0.353691 0.353691 0.935362 479.831 390.235)" fill="#FFDF8E"/>
<circle r="24.6207" transform="matrix(-0.935362 0.353691 0.353691 0.935362 486.925 328.584)" fill="#B6DBC3"/>
<circle r="24.6207" transform="matrix(-0.935362 0.353691 0.353691 0.935362 522.71 281.636)" fill="#9DB8D6"/>
<circle r="24.6207" transform="matrix(-0.935362 0.353691 0.353691 0.935362 520.98 422.4)" fill="#9DB8D6"/>
<circle r="24.6207" transform="matrix(-0.935362 0.353691 0.353691 0.935362 407.599 274.975)" fill="#B6DBC3"/>
<circle r="24.6207" transform="matrix(-0.935362 0.353691 0.353691 0.935362 300.093 333.518)" fill="#9DB8D6"/>
<circle r="24.6207" transform="matrix(-0.935362 0.353691 0.353691 0.935362 465.187 266.644)" fill="#FFDF8E"/>
<circle r="24.6207" transform="matrix(-0.935362 0.353691 0.353691 0.935362 256.482 385.247)" fill="#FFDF8E"/>
<circle r="24.6207" transform="matrix(-0.935362 0.353691 0.353691 0.935362 41.5226 414.531)" fill="#FFDF8E"/>
<circle r="24.6207" transform="matrix(-0.935362 0.353691 0.353691 0.935362 210.698 427.558)" fill="#FF8E8E"/>
<circle r="24.6207" transform="matrix(-0.935362 0.353691 0.353691 0.935362 153.972 446.108)" fill="#B6DBC3"/>
<circle r="24.6207" transform="matrix(-0.935362 0.353691 0.353691 0.935362 99.6261 436.334)" fill="#9DB8D6"/>
</svg>
