<svg width="1493" height="619" viewBox="0 0 1493 619" fill="none" xmlns="http://www.w3.org/2000/svg">
<path d="M38.563 470C63.9296 453.584 79.743 445.207 109.813 444.68C141.339 444.128 214.284 470.703 260.351 465.577C318.914 459.061 342.814 446.235 389.55 413.808C438.69 379.712 512.124 344.323 572.71 329.497C607.344 321.022 641.227 322.773 676.355 322.256C708.606 321.781 744.902 317.487 774.948 304.938C792.958 297.415 818.806 282.022 823.191 262.003C825.873 249.76 812.061 254.805 806.178 258.552C794.733 265.841 793.246 277.318 804.628 285.018C833.105 304.282 881.038 307.788 914.476 304.272C981.211 297.255 1034.97 260.876 1088.08 224.831C1141.2 188.786 1141.59 183.331 1155.08 162.331C1168.58 141.331 1161.58 96.031 1115.58 102.832C1047.08 112.958 1103.58 205.165 1127.08 242.332C1150.58 279.499 1169.58 300.075 1208.08 322.256C1240.73 341.063 1260.92 347.623 1297.58 356.331C1342.88 367.09 1371.59 365.815 1418.08 368.331C1446.35 369.862 1490.58 368.331 1490.58 368.331" stroke="#9DB8D6" stroke-width="4" stroke-linecap="round"/>
<circle cx="383.317" cy="452.405" r="25" transform="rotate(-9.96272 383.317 452.405)" fill="#9DB8D6"/>
<circle cx="80.2841" cy="480.095" r="25" transform="rotate(-9.96272 80.2841 480.095)" fill="#FF8E8E"/>
<circle cx="146.556" cy="479.638" r="25" transform="rotate(-9.96272 146.556 479.638)" fill="#9DB8D6"/>
<circle cx="202.651" cy="489.168" r="25" transform="rotate(-9.96272 202.651 489.168)" fill="#FFDF8E"/>
<circle cx="269.208" cy="490.342" r="25" transform="rotate(-9.96272 269.208 490.342)" fill="#FF8E8E"/>
<circle cx="333.446" cy="478.311" r="25" transform="rotate(-9.96272 333.446 478.311)" fill="#B6DBC3"/>
<circle cx="428.397" cy="420.438" r="25" transform="rotate(-9.96272 428.397 420.438)" fill="#B6DBC3"/>
<circle cx="661.067" cy="352.921" r="25" transform="rotate(-9.96272 661.067 352.921)" fill="#FF8E8E"/>
<circle cx="813.401" cy="227.01" r="25" transform="rotate(-9.96272 813.401 227.01)" fill="#FF8E8E"/>
<circle cx="538.427" cy="367.755" r="25" transform="rotate(-9.96272 538.427 367.755)" fill="#B6DBC3"/>
<circle cx="601.52" cy="349.217" r="25" transform="rotate(-9.96272 601.52 349.217)" fill="#9DB8D6"/>
<circle cx="726.321" cy="346.677" r="25" transform="rotate(-9.96272 726.321 346.677)" fill="#FFDF8E"/>
<circle cx="786.268" cy="327.201" r="25" transform="rotate(-9.96272 786.268 327.201)" fill="#FF8E8E"/>
<circle cx="851.69" cy="270.978" r="25" transform="rotate(-9.96272 851.69 270.978)" fill="#FFDF8E"/>
<circle cx="1040.02" cy="286.355" r="25" transform="rotate(-9.96272 1040.02 286.355)" fill="#FFDF8E"/>
<circle cx="1173.03" cy="263.322" r="25" transform="rotate(-9.96272 1173.03 263.322)" fill="#FFDF8E"/>
<circle cx="1443.03" cy="345.322" r="25" transform="rotate(-9.96272 1443.03 345.322)" fill="#FFDF8E"/>
<circle cx="1058.03" cy="134.322" r="25" transform="rotate(-9.96272 1058.03 134.322)" fill="#FFDF8E"/>
<circle cx="1183.03" cy="124.322" r="25" transform="rotate(-9.96272 1183.03 124.322)" fill="#FFDF8E"/>
<circle cx="869.593" cy="330.457" r="25" transform="rotate(-9.96272 869.593 330.457)" fill="#B6DBC3"/>
<circle cx="1173.03" cy="178.322" r="25" transform="rotate(-9.96272 1173.03 178.322)" fill="#B6DBC3"/>
<circle cx="1266.03" cy="323.322" r="25" transform="rotate(-9.96272 1266.03 323.322)" fill="#B6DBC3"/>
<circle cx="1071.03" cy="191.322" r="25" transform="rotate(-9.96272 1071.03 191.322)" fill="#B6DBC3"/>
<circle cx="769.433" cy="265.3" r="25" transform="rotate(-9.96272 769.433 265.3)" fill="#B6DBC3"/>
<circle cx="985.306" cy="310.131" r="25" transform="rotate(-9.96272 985.306 310.131)" fill="#FF8E8E"/>
<circle cx="1134.03" cy="222.322" r="25" transform="rotate(-9.96272 1134.03 222.322)" fill="#FF8E8E"/>
<circle cx="1321.03" cy="336.322" r="25" transform="rotate(-9.96272 1321.03 336.322)" fill="#FF8E8E"/>
<circle cx="1096.03" cy="83.3231" r="25" transform="rotate(-9.96272 1096.03 83.3231)" fill="#FF8E8E"/>
<circle cx="930.89" cy="327.144" r="25" transform="rotate(-9.96272 930.89 327.144)" fill="#9DB8D6"/>
<circle cx="1086.07" cy="252.922" r="25" transform="rotate(-9.96272 1086.07 252.922)" fill="#9DB8D6"/>
<circle cx="1216.03" cy="297.322" r="25" transform="rotate(-9.96272 1216.03 297.322)" fill="#9DB8D6"/>
<circle cx="1382.03" cy="342.322" r="25" transform="rotate(-9.96272 1382.03 342.322)" fill="#9DB8D6"/>
<circle cx="1153.03" cy="82.3221" r="25" transform="rotate(-9.96272 1153.03 82.3221)" fill="#9DB8D6"/>
</svg>
