<svg width="1493" height="619" viewBox="0 0 1493 619" fill="none" xmlns="http://www.w3.org/2000/svg">
<path d="M38.5664 469.999C63.933 453.583 79.6289 445.207 109.699 444.68C141.225 444.128 214.17 470.703 260.237 465.577C318.8 459.061 342.7 446.235 389.436 413.808C438.576 379.712 512.01 344.323 572.596 329.497C607.23 321.022 641.113 322.773 676.241 322.256C708.492 321.781 744.788 317.487 774.833 304.938C792.844 297.415 818.692 282.022 823.077 262.003C825.759 249.76 811.947 254.805 806.063 258.552C794.619 265.841 793.132 277.318 804.514 285.018C832.991 304.282 880.924 307.788 914.362 304.272C981.097 297.255 1034.86 260.876 1087.97 224.831C1141.08 188.786 1141.47 183.331 1154.97 162.331C1168.47 141.331 1161.47 96.031 1115.47 102.832C1046.97 112.958 1103.47 205.165 1126.97 242.332C1150.47 279.499 1169.46 300.075 1207.97 322.256C1240.62 341.063 1260.81 347.623 1297.47 356.331C1342.77 367.09 1371.48 365.815 1417.97 368.331C1446.24 369.862 1490.47 368.331 1490.47 368.331" stroke="#9DB8D6" stroke-width="4" stroke-linecap="round"/>
<circle cx="383.204" cy="452.405" r="25" transform="rotate(-9.96272 383.204 452.405)" fill="#FF8E8E"/>
<circle cx="80.1709" cy="480.095" r="25" transform="rotate(-9.96272 80.1709 480.095)" fill="#FFDF8E"/>
<circle cx="146.442" cy="479.638" r="25" transform="rotate(-9.96272 146.442 479.638)" fill="#FF8E8E"/>
<circle cx="202.538" cy="489.168" r="25" transform="rotate(-9.96272 202.538 489.168)" fill="#B6DBC3"/>
<circle cx="269.095" cy="490.342" r="25" transform="rotate(-9.96272 269.095 490.342)" fill="#FFDF8E"/>
<circle cx="333.333" cy="478.311" r="25" transform="rotate(-9.96272 333.333 478.311)" fill="#9DB8D6"/>
<circle cx="428.284" cy="420.438" r="25" transform="rotate(-9.96272 428.284 420.438)" fill="#9DB8D6"/>
<circle cx="660.954" cy="352.921" r="25" transform="rotate(-9.96272 660.954 352.921)" fill="#FFDF8E"/>
<circle cx="813.288" cy="227.01" r="25" transform="rotate(-9.96272 813.288 227.01)" fill="#FFDF8E"/>
<circle cx="538.313" cy="367.755" r="25" transform="rotate(-9.96272 538.313 367.755)" fill="#9DB8D6"/>
<circle cx="601.407" cy="349.217" r="25" transform="rotate(-9.96272 601.407 349.217)" fill="#FF8E8E"/>
<circle cx="726.208" cy="346.677" r="25" transform="rotate(-9.96272 726.208 346.677)" fill="#B6DBC3"/>
<circle cx="786.155" cy="327.201" r="25" transform="rotate(-9.96272 786.155 327.201)" fill="#FFDF8E"/>
<circle cx="851.577" cy="270.978" r="25" transform="rotate(-9.96272 851.577 270.978)" fill="#B6DBC3"/>
<circle cx="1039.91" cy="286.355" r="25" transform="rotate(-9.96272 1039.91 286.355)" fill="#B6DBC3"/>
<circle cx="1172.92" cy="263.322" r="25" transform="rotate(-9.96272 1172.92 263.322)" fill="#B6DBC3"/>
<circle cx="1442.92" cy="345.322" r="25" transform="rotate(-9.96272 1442.92 345.322)" fill="#B6DBC3"/>
<circle cx="1057.92" cy="134.322" r="25" transform="rotate(-9.96272 1057.92 134.322)" fill="#B6DBC3"/>
<circle cx="1182.92" cy="124.322" r="25" transform="rotate(-9.96272 1182.92 124.322)" fill="#B6DBC3"/>
<circle cx="869.479" cy="330.457" r="25" transform="rotate(-9.96272 869.479 330.457)" fill="#9DB8D6"/>
<circle cx="1172.92" cy="178.322" r="25" transform="rotate(-9.96272 1172.92 178.322)" fill="#9DB8D6"/>
<circle cx="1265.92" cy="323.322" r="25" transform="rotate(-9.96272 1265.92 323.322)" fill="#9DB8D6"/>
<circle cx="1070.92" cy="191.322" r="25" transform="rotate(-9.96272 1070.92 191.322)" fill="#9DB8D6"/>
<circle cx="769.319" cy="265.3" r="25" transform="rotate(-9.96272 769.319 265.3)" fill="#9DB8D6"/>
<circle cx="985.192" cy="310.131" r="25" transform="rotate(-9.96272 985.192 310.131)" fill="#9DB8D6"/>
<circle cx="1133.92" cy="222.322" r="25" transform="rotate(-9.96272 1133.92 222.322)" fill="#FFDF8E"/>
<circle cx="1320.92" cy="336.322" r="25" transform="rotate(-9.96272 1320.92 336.322)" fill="#FFDF8E"/>
<circle cx="1095.92" cy="83.3232" r="25" transform="rotate(-9.96272 1095.92 83.3232)" fill="#FFDF8E"/>
<circle cx="930.776" cy="327.144" r="25" transform="rotate(-9.96272 930.776 327.144)" fill="#FF8E8E"/>
<circle cx="1085.96" cy="252.922" r="25" transform="rotate(-9.96272 1085.96 252.922)" fill="#FF8E8E"/>
<circle cx="1215.92" cy="297.322" r="25" transform="rotate(-9.96272 1215.92 297.322)" fill="#FF8E8E"/>
<circle cx="1381.92" cy="342.322" r="25" transform="rotate(-9.96272 1381.92 342.322)" fill="#FF8E8E"/>
<circle cx="1152.92" cy="82.3222" r="25" transform="rotate(-9.96272 1152.92 82.3222)" fill="#FF8E8E"/>
</svg>
