<svg width="1370" height="457" viewBox="0 0 1370 457" fill="none" xmlns="http://www.w3.org/2000/svg">
<path d="M1367.96 399.85C1352.45 404.15 1325.01 409.81 1299.12 405.49C1277.8 401.94 1255.03 396.73 1231.8 387.69C1212.53 380.18 1192.95 370.04 1173.62 355.99C1158.21 344.79 1144.16 331.92 1132.43 318.6C1112.66 296.16 1099.48 272.45 1097.5 253.37C1097.12 249.72 1097.15 246.25 1097.62 242.99C1098.71 235.39 1100.32 227.89 1102.62 220.9C1106.15 210.17 1111.34 200.66 1118.85 193.92C1126.08 187.42 1135.47 183.49 1147.62 183.49C1161.58 183.49 1172.49 187.63 1180.81 193.92C1191.36 201.87 1197.76 213.27 1200.99 224.05C1201.43 225.48 1201.8 226.9 1202.12 228.3C1203.14 232.78 1203.62 237.05 1203.62 240.79C1203.62 248.1 1202.5 255.7 1200.33 263.04C1196.39 276.49 1188.97 289.08 1178.62 297.49C1172.65 302.35 1164.17 307.63 1155.77 311.65C1151.6 313.65 1147.44 315.33 1143.62 316.49C1141.12 317.25 1137.18 317.97 1132.43 318.6C1120.56 320.16 1103.6 321.18 1091.12 321.01C1085.66 320.94 1081.06 320.63 1078.12 320.05C1072.55 318.95 1067.23 317.78 1062.05 316.56C1053.72 314.59 1045.77 312.51 1037.74 310.42C1030.48 308.52 1023.15 306.62 1015.43 304.81C1012.31 304.07 1009.12 303.34 1005.85 302.64C1000.78 301.55 995.391 300.36 989.791 299.21C974.101 296.01 956.811 293.11 940.401 293.41C939.041 293.43 937.681 293.48 936.331 293.55C931.911 293.78 927.571 294.26 923.371 295.06C914.991 296.63 907.131 299.44 900.191 303.94C897.911 305.41 895.731 307.07 893.661 308.92C886.021 315.77 879.901 325.3 876.011 338.34C875.831 338.94 875.651 339.55 875.481 340.16C873.901 345.74 872.581 351.81 871.951 357.94C870.621 370.69 872.271 383.67 880.741 392.94C890.801 403.95 907.461 407.43 918.781 395.86C932.701 381.63 930.881 360.41 924.131 342.14C922.931 338.88 921.571 335.72 920.121 332.71C917.881 328.06 915.411 323.77 912.941 320.05C912.531 319.43 912.111 318.81 911.691 318.2C908.181 313.11 904.331 308.36 900.191 303.94C885.481 288.21 867.151 276.49 847.651 267.57C837.021 262.7 826.031 258.66 815.101 255.25C777.181 243.43 735.951 242.14 695.901 241.28C690.761 241.17 685.651 241.07 680.561 240.96C678.261 240.9 675.961 240.85 673.671 240.79C655.221 240.31 637.971 238.76 621.021 235.68C603.391 232.49 586.101 227.63 568.141 220.57C567.741 220.41 567.351 220.26 566.961 220.1C541.791 210.12 517.911 198.14 495.301 183.08C493.331 181.78 491.371 180.45 489.421 179.09C465.261 162.27 443.641 141.9 418.541 126.47C398.761 114.29 377.301 104.45 355.071 96.76C329.351 87.88 302.581 81.89 276.081 78.55C244.761 74.6 213.131 79.2901 181.831 76.3701C124.671 71.0401 74.8909 32.38 28.1309 2" stroke="#9DB8D6" stroke-width="4" stroke-linecap="round"/>
<path d="M130.141 115.77C143.948 115.77 155.141 104.577 155.141 90.77C155.141 76.9629 143.948 65.77 130.141 65.77C116.334 65.77 105.141 76.9629 105.141 90.77C105.141 104.577 116.334 115.77 130.141 115.77Z" fill="#9DB8D6"/>
<path d="M196.17 128.22C209.977 128.22 221.17 117.027 221.17 103.22C221.17 89.4126 209.977 78.2197 196.17 78.2197C182.363 78.2197 171.17 89.4126 171.17 103.22C171.17 117.027 182.363 128.22 196.17 128.22Z" fill="#FF8E8E"/>
<path d="M47.92 36.5598C44.41 49.9198 30.74 57.8998 17.39 54.3998C8.9 52.1698 2.57 45.8198 0 38.0598C7.93 26.8398 16.38 15.9198 25.28 5.25977C26.88 5.35977 28.49 5.61979 30.09 6.03979C43.44 9.53979 51.43 23.2098 47.92 36.5598Z" fill="#FF8E8E"/>
<path d="M264.6 131.51C278.407 131.51 289.6 120.317 289.6 106.51C289.6 92.7026 278.407 81.5098 264.6 81.5098C250.792 81.5098 239.6 92.7026 239.6 106.51C239.6 120.317 250.792 131.51 264.6 131.51Z" fill="#FFDF8E"/>
<path d="M385.111 163.16C398.918 163.16 410.111 151.967 410.111 138.16C410.111 124.353 398.918 113.16 385.111 113.16C371.304 113.16 360.111 124.353 360.111 138.16C360.111 151.967 371.304 163.16 385.111 163.16Z" fill="#FF8E8E"/>
<path d="M328.391 140.11C342.198 140.11 353.391 128.917 353.391 115.11C353.391 101.303 342.198 90.1099 328.391 90.1099C314.584 90.1099 303.391 101.303 303.391 115.11C303.391 128.917 314.584 140.11 328.391 140.11Z" fill="#B6DBC3"/>
<path d="M71.1602 88.8701C84.9673 88.8701 96.1602 77.6772 96.1602 63.8701C96.1602 50.063 84.9673 38.8701 71.1602 38.8701C57.353 38.8701 46.1602 50.063 46.1602 63.8701C46.1602 77.6772 57.353 88.8701 71.1602 88.8701Z" fill="#B6DBC3"/>
<path d="M443.141 206.11C456.948 206.11 468.141 194.917 468.141 181.11C468.141 167.303 456.948 156.11 443.141 156.11C429.333 156.11 418.141 167.303 418.141 181.11C418.141 194.917 429.333 206.11 443.141 206.11Z" fill="#B6DBC3"/>
<path d="M496.301 239.64C510.108 239.64 521.301 228.447 521.301 214.64C521.301 200.833 510.108 189.64 496.301 189.64C482.494 189.64 471.301 200.833 471.301 214.64C471.301 228.447 482.494 239.64 496.301 239.64Z" fill="#9DB8D6"/>
<path d="M817.961 309.43C831.768 309.43 842.961 298.237 842.961 284.43C842.961 270.623 831.768 259.43 817.961 259.43C804.154 259.43 792.961 270.623 792.961 284.43C792.961 298.237 804.154 309.43 817.961 309.43Z" fill="#9DB8D6"/>
<path d="M556.92 272.68C570.727 272.68 581.92 261.487 581.92 247.68C581.92 233.873 570.727 222.68 556.92 222.68C543.113 222.68 531.92 233.873 531.92 247.68C531.92 261.487 543.113 272.68 556.92 272.68Z" fill="#FFDF8E"/>
<path d="M621.551 290.47C635.358 290.47 646.551 279.277 646.551 265.47C646.551 251.663 635.358 240.47 621.551 240.47C607.744 240.47 596.551 251.663 596.551 265.47C596.551 279.277 607.744 290.47 621.551 290.47Z" fill="#B6DBC3"/>
<path d="M751.93 296.98C765.737 296.98 776.93 285.787 776.93 271.98C776.93 258.173 765.737 246.98 751.93 246.98C738.123 246.98 726.93 258.173 726.93 271.98C726.93 285.787 738.123 296.98 751.93 296.98Z" fill="#FFDF8E"/>
<path d="M869.65 340.86C883.458 340.86 894.65 329.667 894.65 315.86C894.65 302.053 883.458 290.86 869.65 290.86C855.843 290.86 844.65 302.053 844.65 315.86C844.65 329.667 855.843 340.86 869.65 340.86Z" fill="#B6DBC3"/>
<path d="M843.65 399.86C857.458 399.86 868.65 388.667 868.65 374.86C868.65 361.053 857.458 349.86 843.65 349.86C829.843 349.86 818.65 361.053 818.65 374.86C818.65 388.667 829.843 399.86 843.65 399.86Z" fill="#FF8E8E"/>
<path d="M885.65 456.86C899.458 456.86 910.65 445.667 910.65 431.86C910.65 418.053 899.458 406.86 885.65 406.86C871.843 406.86 860.65 418.053 860.65 431.86C860.65 445.667 871.843 456.86 885.65 456.86Z" fill="#FFDF8E"/>
<path d="M929.65 295.86C943.458 295.86 954.65 284.667 954.65 270.86C954.65 257.053 943.458 245.86 929.65 245.86C915.843 245.86 904.65 257.053 904.65 270.86C904.65 284.667 915.843 295.86 929.65 295.86Z" fill="#FFDF8E"/>
<path d="M1180.65 353.86C1194.46 353.86 1205.65 342.667 1205.65 328.86C1205.65 315.053 1194.46 303.86 1180.65 303.86C1166.84 303.86 1155.65 315.053 1155.65 328.86C1155.65 342.667 1166.84 353.86 1180.65 353.86Z" fill="#FFDF8E"/>
<path d="M1366.43 406.84C1362.87 422.89 1359.01 438.89 1354.8 454.79C1353.31 454.68 1351.8 454.42 1350.3 454.03C1336.94 450.53 1328.96 436.86 1332.46 423.5C1335.97 410.15 1349.64 402.17 1362.99 405.67C1364.18 405.98 1365.33 406.38 1366.43 406.84Z" fill="#FFDF8E"/>
<path d="M1045.65 365.86C1059.46 365.86 1070.65 354.667 1070.65 340.86C1070.65 327.053 1059.46 315.86 1045.65 315.86C1031.84 315.86 1020.65 327.053 1020.65 340.86C1020.65 354.667 1031.84 365.86 1045.65 365.86Z" fill="#FFDF8E"/>
<path d="M1077.65 229.85C1091.46 229.85 1102.65 218.657 1102.65 204.85C1102.65 191.043 1091.46 179.85 1077.65 179.85C1063.84 179.85 1052.65 191.043 1052.65 204.85C1052.65 218.657 1063.84 229.85 1077.65 229.85Z" fill="#FFDF8E"/>
<path d="M949.65 419.86C963.458 419.86 974.65 408.667 974.65 394.86C974.65 381.053 963.458 369.86 949.65 369.86C935.843 369.86 924.65 381.053 924.65 394.86C924.65 408.667 935.843 419.86 949.65 419.86Z" fill="#9DB8D6"/>
<path d="M944.65 352.86C958.458 352.86 969.65 341.667 969.65 327.86C969.65 314.053 958.458 302.86 944.65 302.86C930.843 302.86 919.65 314.053 919.65 327.86C919.65 341.667 930.843 352.86 944.65 352.86Z" fill="#FF8E8E"/>
<path d="M1118.65 372.86C1132.46 372.86 1143.65 361.667 1143.65 347.86C1143.65 334.053 1132.46 322.86 1118.65 322.86C1104.84 322.86 1093.65 334.053 1093.65 347.86C1093.65 361.667 1104.84 372.86 1118.65 372.86Z" fill="#FF8E8E"/>
<path d="M1291.65 456.86C1305.46 456.86 1316.65 445.667 1316.65 431.86C1316.65 418.053 1305.46 406.86 1291.65 406.86C1277.84 406.86 1266.65 418.053 1266.65 431.86C1266.65 445.667 1277.84 456.86 1291.65 456.86Z" fill="#FF8E8E"/>
<path d="M1186.65 192.86C1200.46 192.86 1211.65 181.667 1211.65 167.86C1211.65 154.053 1200.46 142.86 1186.65 142.86C1172.84 142.86 1161.65 154.053 1161.65 167.86C1161.65 181.667 1172.84 192.86 1186.65 192.86Z" fill="#FF8E8E"/>
<path d="M997.65 299.86C1011.46 299.86 1022.65 288.667 1022.65 274.86C1022.65 261.053 1011.46 249.86 997.65 249.86C983.843 249.86 972.65 261.053 972.65 274.86C972.65 288.667 983.843 299.86 997.65 299.86Z" fill="#B6DBC3"/>
<path d="M1221.65 306.85C1235.46 306.85 1246.65 295.657 1246.65 281.85C1246.65 268.043 1235.46 256.85 1221.65 256.85C1207.84 256.85 1196.65 268.043 1196.65 281.85C1196.65 295.657 1207.84 306.85 1221.65 306.85Z" fill="#B6DBC3"/>
<path d="M1220.65 437.86C1234.46 437.86 1245.65 426.667 1245.65 412.86C1245.65 399.053 1234.46 387.86 1220.65 387.86C1206.84 387.86 1195.65 399.053 1195.65 412.86C1195.65 426.667 1206.84 437.86 1220.65 437.86Z" fill="#B6DBC3"/>
<path d="M1122.65 185.85C1136.46 185.85 1147.65 174.657 1147.65 160.85C1147.65 147.043 1136.46 135.85 1122.65 135.85C1108.84 135.85 1097.65 147.043 1097.65 160.85C1097.65 174.657 1108.84 185.85 1122.65 185.85Z" fill="#B6DBC3"/>
<path d="M1072.65 295.86C1086.46 295.86 1097.65 284.667 1097.65 270.86C1097.65 257.053 1086.46 245.86 1072.65 245.86C1058.84 245.86 1047.65 257.053 1047.65 270.86C1047.65 284.667 1058.84 295.86 1072.65 295.86Z" fill="#9DB8D6"/>
<path d="M1225.65 244.86C1239.46 244.86 1250.65 233.667 1250.65 219.86C1250.65 206.053 1239.46 194.86 1225.65 194.86C1211.84 194.86 1200.65 206.053 1200.65 219.86C1200.65 233.667 1211.84 244.86 1225.65 244.86Z" fill="#9DB8D6"/>
<path d="M1164.65 410.86C1178.46 410.86 1189.65 399.667 1189.65 385.86C1189.65 372.053 1178.46 360.86 1164.65 360.86C1150.84 360.86 1139.65 372.053 1139.65 385.86C1139.65 399.667 1150.84 410.86 1164.65 410.86Z" fill="#9DB8D6"/>
<path d="M687.74 289.91C701.547 289.91 712.74 278.717 712.74 264.91C712.74 251.103 701.547 239.91 687.74 239.91C673.933 239.91 662.74 251.103 662.74 264.91C662.74 278.717 673.933 289.91 687.74 289.91Z" fill="#FF8E8E"/>
</svg>
