<svg width="251" height="408" viewBox="0 0 251 408" fill="none" xmlns="http://www.w3.org/2000/svg">
<path d="M0.688557 344.426C1.83237 347.154 2.74455 350.013 4.16047 352.584C9.09571 361.532 16.5843 368.127 24.6902 374.047C44.1033 388.225 66.099 397.335 88.625 405.562C98.8229 409.284 108.182 409.028 117.232 402.68C121.239 399.869 125.048 396.636 128.448 393.115C141.462 379.639 150.789 363.655 159.437 347.283C177.65 312.805 191.55 276.599 204.721 240.108C215.877 209.19 226.15 178 234.794 146.342C240.852 124.138 246.116 101.776 248.782 78.9675C250.45 64.696 251.323 50.4182 248.126 36.3492C246.639 29.8196 244.365 23.6034 239.152 19.1679C236.819 17.1814 234.079 15.3357 231.181 14.382C209.147 7.14042 186.672 1.61502 163.229 0.351619C151.403 -0.286828 139.583 -0.00331108 128.17 4.2272C124.675 5.52439 121.436 7.56994 118.084 9.27047C118.113 9.59256 118.15 9.91725 118.179 10.2393C119.288 10.7003 120.363 11.2443 121.509 11.6143C143.136 18.6262 164.761 25.6461 186.414 32.5858C193.689 34.9179 199.159 39.137 200.182 47.0179C200.64 50.5565 199.449 54.4029 198.739 58.0649C198.343 60.1215 196.747 59.1814 195.617 58.8166C185.586 55.6037 175.569 52.3506 165.547 49.1136C148.689 43.6645 131.845 38.1752 114.968 32.7822C107.323 30.34 100.07 34.1048 97.4833 41.6773C94.8992 49.2418 98.3223 56.3876 105.955 58.8752C132.45 67.4994 158.976 76.0352 185.482 84.614C189.117 85.788 189.069 85.7993 187.839 89.4942C186.329 94.0372 184.889 98.598 183.303 103.536C177.151 101.572 171.646 99.834 166.155 98.056C143.96 90.8831 121.773 83.6727 99.5614 76.5345C93.6485 74.6337 88.5757 76.2031 84.7872 80.8455C80.9471 85.5471 80.2737 91.6736 83.0185 96.7596C84.7589 99.9844 87.6137 101.706 91.0022 102.801C117.607 111.389 144.201 119.996 170.8 128.6C171.715 128.895 172.602 129.258 174.022 129.779C172.016 135.234 170.102 140.491 168.156 145.737C167.425 147.713 166.056 146.757 164.934 146.394C153.779 142.814 142.638 139.193 131.491 135.589C115.848 130.527 100.149 125.613 84.5834 120.354C75.3164 117.222 66.8069 124.2 66.0944 132.842C65.5714 139.209 68.9841 144.373 75.4375 146.475C90.3194 151.322 105.221 156.112 120.114 160.927C132.008 164.773 143.891 168.664 155.808 172.433C157.837 173.074 158.519 173.844 157.665 176.021C156.132 179.936 154.715 183.91 153.511 187.935C152.746 190.489 151.624 190.899 149.182 190.097C133.016 184.76 116.796 179.562 100.588 174.318C89.9105 170.865 79.2529 167.356 68.5421 163.986C62.1458 161.973 55.9431 164.71 52.5586 170.792C49.3999 176.469 50.4111 183.841 55.1233 187.592C56.7616 188.894 58.8309 189.799 60.8565 190.462C87.253 199.064 113.664 207.625 140.103 216.079C142.54 216.857 143.202 217.684 142.235 220.235C140.464 224.903 139.062 229.709 137.408 234.768C135.882 234.36 134.859 234.132 133.881 233.817C107.374 225.251 80.8679 216.672 54.356 208.11C47.2925 205.828 41.4707 207.83 37.7042 213.802C34.2093 219.339 34.6534 226.662 39.1518 230.746C40.9627 232.39 43.3979 233.565 45.768 234.344C72.0604 242.952 98.3784 251.474 124.733 259.892C127.392 260.742 127.832 261.8 126.828 264.304C125.333 268.021 124.026 271.821 122.868 275.651C122.154 278.02 121.162 278.517 118.794 277.744C92.2148 269.07 65.5993 260.487 38.9863 251.91C32.3524 249.767 26.2211 251.781 22.6701 257.174C17.3653 265.241 20.4772 274.908 29.4467 277.828C55.9363 286.441 82.4592 294.985 108.963 303.559C112.662 304.753 112.6 304.751 111.356 308.486C109.841 313.032 108.435 317.608 106.9 322.416C105.217 321.975 104.186 321.758 103.184 321.434C76.77 312.894 50.3646 304.344 23.9538 295.796C17.4526 293.692 11.9202 295.157 8.06133 300.014C4.25158 304.806 3.52738 311.394 7.07935 316.374C8.71615 318.667 11.5103 320.651 14.2118 321.546C40.3725 330.214 66.6258 338.617 92.8539 347.093C93.6971 347.365 94.7008 347.457 95.3287 347.99C95.9696 348.537 96.74 349.612 96.5972 350.299C93.7597 363.915 83.0155 370.145 69.899 365.895C48.1761 358.852 26.4422 351.828 4.71374 344.801C3.624 344.449 2.49801 344.188 1.38603 343.887C1.14551 344.069 0.899609 344.253 0.659083 344.434L0.688557 344.426Z" fill="#FFDF8E"/>
</svg>
