<svg width="1289" height="634" viewBox="0 0 1289 634" fill="none" xmlns="http://www.w3.org/2000/svg">
<path d="M292.843 215.898C277.645 257.655 231.455 279.178 189.675 263.972C147.895 248.765 126.347 202.587 141.545 160.83C156.744 119.073 202.934 97.549 244.713 112.756C286.493 127.962 308.041 174.14 292.843 215.898Z" fill="#FF8E8E"/>
<path d="M356.095 142.408C340.897 184.165 294.707 205.688 252.927 190.482C211.147 175.275 189.599 129.097 204.797 87.34C219.996 45.5828 266.186 24.0593 307.965 39.2658C349.745 54.4724 371.293 100.651 356.095 142.408Z" fill="#FFDF8E"/>
<path d="M374.236 234.928C359.037 276.685 312.847 298.209 271.068 283.002C229.288 267.795 207.74 221.617 222.938 179.86C238.136 138.103 284.326 116.579 326.106 131.786C367.885 146.992 389.434 193.171 374.236 234.928Z" fill="#9DB8D6"/>
<path d="M99.2529 584.209L148.104 228.539L309.54 287.297L102.785 585.584C101.618 587.268 98.9742 586.239 99.2529 584.209Z" fill="#FFDF8E"/>
<path d="M722.212 215.898C707.014 257.655 660.824 279.178 619.044 263.972C577.265 248.765 555.716 202.587 570.915 160.83C586.113 119.073 632.303 97.549 674.082 112.756C715.862 127.962 737.41 174.14 722.212 215.898Z" fill="#FFDF8E"/>
<path d="M785.464 142.408C770.266 184.165 724.076 205.688 682.296 190.482C640.517 175.275 618.968 129.097 634.166 87.34C649.365 45.5828 695.555 24.0593 737.334 39.2658C779.114 54.4724 800.662 100.651 785.464 142.408Z" fill="#9DB8D6"/>
<path d="M803.605 234.928C788.406 276.685 742.216 298.209 700.437 283.002C658.657 267.795 637.109 221.617 652.307 179.86C667.505 138.103 713.695 116.579 755.475 131.786C797.255 146.992 818.803 193.171 803.605 234.928Z" fill="#FF8E8E"/>
<path d="M528.622 584.209L577.473 228.539L738.909 287.297L532.155 585.584C530.987 587.268 528.343 586.239 528.622 584.209Z" fill="#FFDF8E"/>
<path d="M1151.58 215.898C1136.38 257.655 1090.19 279.178 1048.41 263.972C1006.63 248.765 985.085 202.587 1000.28 160.83C1015.48 119.073 1061.67 97.549 1103.45 112.756C1145.23 127.962 1166.78 174.14 1151.58 215.898Z" fill="#9DB8D6"/>
<path d="M1214.83 142.408C1199.63 184.165 1153.44 205.688 1111.67 190.482C1069.89 175.275 1048.34 129.097 1063.54 87.34C1078.73 45.5828 1124.92 24.0593 1166.7 39.2658C1208.48 54.4724 1230.03 100.651 1214.83 142.408Z" fill="#FF8E8E"/>
<path d="M1232.97 234.928C1217.78 276.685 1171.59 298.209 1129.81 283.002C1088.03 267.795 1066.48 221.617 1081.68 179.86C1096.87 138.103 1143.06 116.579 1184.84 131.786C1226.62 146.992 1248.17 193.171 1232.97 234.928Z" fill="#FFDF8E"/>
<path d="M957.991 584.209L1006.84 228.539L1168.28 287.297L961.524 585.584C960.357 587.268 957.712 586.239 957.991 584.209Z" fill="#FFDF8E"/>
</svg>
