<svg width="1094" height="1064" viewBox="0 0 1094 1064" fill="none" xmlns="http://www.w3.org/2000/svg">
<path d="M1022.75 536.956C1022.75 799.757 809.734 1012.8 546.961 1012.8C284.187 1012.8 71.1668 799.757 71.1668 536.956C71.1668 274.155 284.187 61.1131 546.961 61.1131C809.734 61.1131 1022.75 274.155 1022.75 536.956Z" stroke="#9DB8D6" stroke-width="11.564"/>
<line x1="65.3848" y1="532.432" x2="1028.54" y2="532.432" stroke="#9DB8D6" stroke-width="11.564"/>
<line y1="-5.78201" x2="963.167" y2="-5.78201" transform="matrix(0.918242 0.39602 -0.395952 0.918271 104.016 348.633)" stroke="#9DB8D6" stroke-width="11.564"/>
<line x1="542.439" y1="1018.58" x2="542.439" y2="55.3303" stroke="#9DB8D6" stroke-width="11.564"/>
<line y1="-5.78201" x2="963.234" y2="-5.78201" transform="matrix(0.395952 -0.918271 0.918242 0.39602 354.824 976.23)" stroke="#9DB8D6" stroke-width="11.564"/>
<line y1="-5.78201" x2="963.201" y2="-5.78201" transform="matrix(0.707071 -0.707143 0.707071 0.707143 206.211 875.087)" stroke="#9DB8D6" stroke-width="11.564"/>
<line y1="-5.78201" x2="963.165" y2="-5.78201" transform="matrix(0.929297 -0.369334 0.369269 0.929323 98.0703 713.357)" stroke="#9DB8D6" stroke-width="11.564"/>
<line y1="-5.78201" x2="963.201" y2="-5.78201" transform="matrix(-0.707071 -0.707143 -0.707071 0.707143 884.592 882.478)" stroke="#9DB8D6" stroke-width="11.564"/>
<line y1="-5.78201" x2="963.236" y2="-5.78201" transform="matrix(-0.369269 -0.929323 -0.929297 0.369334 719.207 985.699)" stroke="#9DB8D6" stroke-width="11.564"/>
<rect y="477.852" width="130" height="130" rx="65" fill="#9DB8D6"/>
<rect width="130" height="130" rx="65" transform="matrix(-1 0 0 1 1093.92 477.852)" fill="#9DB8D6"/>
<rect x="32.6934" y="301.801" width="130" height="130" rx="65" fill="#9DB8D6"/>
<rect width="130" height="130" rx="65" transform="matrix(-1 0 0 1 1061.23 301.801)" fill="#9DB8D6"/>
<rect width="130" height="130" rx="65" transform="matrix(1 0 0 -1 32.6934 762.049)" fill="#9DB8D6"/>
<rect x="1061.23" y="762.049" width="130" height="130" rx="65" transform="rotate(-180 1061.23 762.049)" fill="#9DB8D6"/>
<rect x="135.789" y="148.387" width="130" height="130" rx="65" fill="#9DB8D6"/>
<rect width="130" height="130" rx="65" transform="matrix(-1 0 0 1 958.123 148.387)" fill="#9DB8D6"/>
<rect width="130" height="130" rx="65" transform="matrix(1 0 0 -1 135.789 915.464)" fill="#9DB8D6"/>
<rect x="958.123" y="915.466" width="130" height="130" rx="65" transform="rotate(-180 958.123 915.466)" fill="#9DB8D6"/>
<rect x="300.033" y="40.2402" width="130" height="130" rx="65" fill="#9DB8D6"/>
<rect width="130" height="130" rx="65" transform="matrix(-1 0 0 1 793.881 40.2402)" fill="#9DB8D6"/>
<path d="M300.035 958.61C300.035 994.509 329.137 1023.61 365.035 1023.61V1023.61C400.934 1023.61 430.035 994.509 430.035 958.61V958.61C430.035 922.712 400.934 893.61 365.035 893.61V893.61C329.137 893.61 300.035 922.712 300.035 958.61V958.61Z" fill="#9DB8D6"/>
<rect x="793.881" y="1023.61" width="130" height="130" rx="65" transform="rotate(-180 793.881 1023.61)" fill="#9DB8D6"/>
<rect x="475.285" width="130" height="130" rx="65" fill="#9DB8D6"/>
<rect width="130" height="130" rx="65" transform="matrix(1 0 0 -1 475.285 1063.85)" fill="#9DB8D6"/>
</svg>
