<svg width="1094" height="1267" viewBox="0 0 1094 1267" fill="none" xmlns="http://www.w3.org/2000/svg">
<path d="M1022.83 537.078C1022.83 799.94 809.795 1013.03 547.002 1013.03C284.21 1013.03 71.1726 799.94 71.1726 537.078C71.1726 274.215 284.21 61.1258 547.002 61.1258C809.795 61.1258 1022.83 274.215 1022.83 537.078Z" stroke="#9DB8D6" stroke-width="11.564"/>
<line x1="65.3906" y1="532.554" x2="1028.61" y2="532.554" stroke="#9DB8D6" stroke-width="11.564"/>
<line y1="-5.78201" x2="963.262" y2="-5.78201" transform="matrix(0.91822 0.39607 -0.395901 0.918293 104.023 348.712)" stroke="#9DB8D6" stroke-width="11.564"/>
<line x1="542.48" y1="1018.81" x2="542.48" y2="55.3428" stroke="#9DB8D6" stroke-width="11.564"/>
<line y1="-5.78201" x2="963.43" y2="-5.78201" transform="matrix(0.395901 -0.918293 0.91822 0.39607 354.852 976.451)" stroke="#9DB8D6" stroke-width="11.564"/>
<line y1="-5.78201" x2="963.346" y2="-5.78201" transform="matrix(0.707017 -0.707196 0.707017 0.707196 206.227 875.285)" stroke="#9DB8D6" stroke-width="11.564"/>
<line y1="-5.78201" x2="963.257" y2="-5.78201" transform="matrix(0.929278 -0.369382 0.36922 0.929342 98.0781 713.519)" stroke="#9DB8D6" stroke-width="11.564"/>
<line y1="-5.78201" x2="963.346" y2="-5.78201" transform="matrix(-0.707017 -0.707196 -0.707017 0.707196 884.658 882.678)" stroke="#9DB8D6" stroke-width="11.564"/>
<line y1="-5.78201" x2="963.434" y2="-5.78201" transform="matrix(-0.36922 -0.929342 -0.929278 0.369382 719.262 985.922)" stroke="#9DB8D6" stroke-width="11.564"/>
<rect y="477.96" width="130.777" height="108.17" rx="27.7536" fill="#9DB8D6"/>
<rect width="130.777" height="108.17" rx="27.7536" transform="matrix(-1 0 0 1 1094 477.96)" fill="#9DB8D6"/>
<rect x="32.6953" y="301.869" width="130.777" height="108.17" rx="27.7536" fill="#9DB8D6"/>
<rect width="130.777" height="108.17" rx="27.7536" transform="matrix(-1 0 0 1 1061.31 301.869)" fill="#9DB8D6"/>
<rect width="130.777" height="108.17" rx="27.7536" transform="matrix(1 0 0 -1 32.6953 762.222)" fill="#9DB8D6"/>
<rect x="1061.31" y="762.222" width="130.777" height="108.17" rx="27.7536" transform="rotate(-180 1061.31 762.222)" fill="#9DB8D6"/>
<rect x="135.799" y="148.42" width="130.777" height="108.17" rx="27.7536" fill="#9DB8D6"/>
<rect width="130.777" height="108.17" rx="27.7536" transform="matrix(-1 0 0 1 958.195 148.42)" fill="#9DB8D6"/>
<rect width="130.777" height="108.17" rx="27.7536" transform="matrix(1 0 0 -1 135.799 915.671)" fill="#9DB8D6"/>
<rect x="958.195" y="915.673" width="130.777" height="108.17" rx="27.7536" transform="rotate(-180 958.195 915.673)" fill="#9DB8D6"/>
<rect x="300.055" y="40.249" width="130.777" height="108.17" rx="27.7536" fill="#9DB8D6"/>
<rect width="130.777" height="108.17" rx="27.7536" transform="matrix(-1 0 0 1 793.939 40.249)" fill="#9DB8D6"/>
<path d="M300.057 996.088C300.057 1011.42 312.482 1023.84 327.81 1023.84H403.08C418.408 1023.84 430.834 1011.42 430.834 996.088V943.425C430.834 928.098 418.408 915.672 403.08 915.672H327.81C312.482 915.672 300.057 928.098 300.057 943.425V996.088Z" fill="#9DB8D6"/>
<rect x="793.939" y="1023.84" width="130.777" height="108.17" rx="27.7536" transform="rotate(-180 793.939 1023.84)" fill="#9DB8D6"/>
<rect x="475.32" width="130.777" height="108.17" rx="27.7536" fill="#9DB8D6"/>
<rect width="130.777" height="108.17" rx="27.7536" transform="matrix(1 0 0 -1 475.32 1064.09)" fill="#9DB8D6"/>
<line y1="-5.78201" x2="705.644" y2="-5.78201" transform="matrix(-0.200566 0.97968 -0.97966 -0.200664 537.805 528.506)" stroke="#9DB8D6" stroke-width="11.564"/>
<line y1="-5.78201" x2="705.644" y2="-5.78201" transform="matrix(0.200566 0.97968 0.97966 -0.200664 547.236 530.866)" stroke="#9DB8D6" stroke-width="11.564"/>
<path d="M382.486 1143.67C384.807 1131.71 395.279 1123.08 407.46 1123.08H671.679C683.771 1123.08 694.192 1131.59 696.608 1143.44L715.575 1236.48C718.789 1252.25 706.74 1267 690.647 1267H389.396C373.4 1267 361.373 1252.41 364.422 1236.71L382.486 1143.67Z" fill="#9DB8D6"/>
</svg>
