<svg width="100" height="270" viewBox="0 0 100 270" fill="none" xmlns="http://www.w3.org/2000/svg">
<rect x="94.7266" y="61.7676" width="153.705" height="74.7785" rx="37.3893" transform="rotate(95.2404 94.7266 61.7676)" fill="#9DB8D6"/>
<path d="M86.2165 38.6056L72.2064 53.0691C68.4757 56.9206 63.2014 58.8754 57.8616 58.3857L57.5654 58.3585C52.854 57.9264 48.4918 55.6902 45.3905 52.1173L28.5606 32.728C27.1242 31.0732 26.4253 28.904 26.6254 26.7219C27.0699 21.8755 31.6835 18.5315 36.4277 19.6171L39.1253 20.2344C42.5926 21.0278 46.0748 18.9708 47.0533 15.5511L47.5782 13.7166C48.3098 11.1599 50.982 9.68662 53.5345 10.4327C55.9311 11.1332 58.4642 9.87761 59.358 7.5462L59.5395 7.07288C60.3965 4.83738 62.6353 3.44427 65.0195 3.66294L66.163 3.76782C69.2262 4.04877 71.7282 6.33373 72.2853 9.35892L73.9415 18.3531C74.5974 21.9153 77.5435 24.6058 81.1504 24.9366C87.91 25.5566 90.9393 33.73 86.2165 38.6056Z" fill="#9DB8D6"/>
<path d="M14.512 231.139L28.5221 216.676C32.2528 212.824 37.5271 210.87 42.8669 211.359L43.1631 211.387C47.8745 211.819 52.2367 214.055 55.338 217.628L72.1679 237.017C73.6043 238.672 74.3032 240.841 74.1031 243.023C73.6586 247.87 69.045 251.214 64.3009 250.128L61.6032 249.511C58.1359 248.717 54.6537 250.774 53.6752 254.194L53.1503 256.029C52.4187 258.585 49.7465 260.058 47.194 259.312C44.7974 258.612 42.2643 259.868 41.3705 262.199L41.1891 262.672C40.332 264.908 38.0932 266.301 35.7091 266.082L34.5655 265.977C31.5023 265.696 29.0003 263.411 28.4432 260.386L26.7871 251.392C26.1311 247.83 23.185 245.139 19.5781 244.808C12.8185 244.189 9.78921 236.015 14.512 231.139Z" fill="#9DB8D6"/>
</svg>
