<svg width="212" height="247" viewBox="0 0 212 247" fill="none" xmlns="http://www.w3.org/2000/svg">
<ellipse cx="106.365" cy="123.852" rx="63.1627" ry="45.5" transform="rotate(54.8237 106.365 123.852)" fill="#9DC4AD"/>
<path d="M185.898 195.131C186.316 193.476 181.551 187.495 176.243 181.827C168.428 173.481 156.082 165.003 146.737 171.59L140.045 176.306C132.986 182.534 140.861 212.38 144.892 214.94C150.072 218.228 149.228 208.736 153.95 208.556C160.087 208.322 150.423 213.58 161.87 219.793C168.823 223.567 164.744 214.11 167.615 210.062C170.486 206.015 183.899 219.323 184.112 213.032C184.788 193.008 176.178 202.182 170.923 194.32C165.668 186.458 184.71 199.832 185.898 195.131Z" fill="#9DC4AD"/>
<path d="M29.2136 49.7844C28.7956 51.439 33.5606 57.4196 38.8686 63.0882C46.6836 71.4341 59.0291 79.9121 68.3746 73.3253L75.0668 68.6087C82.1249 62.3812 74.2508 32.5353 70.219 29.9755C65.0394 26.687 65.8831 36.1795 61.1612 36.3594C55.0246 36.5932 64.6884 31.3354 53.2409 25.1218C46.2884 21.348 50.3675 30.8054 47.4965 34.8529C44.6255 38.9003 31.2123 25.5924 30.9998 31.8827C30.3232 51.9071 38.9336 42.7334 44.1883 50.595C49.443 58.4566 30.4012 45.0833 29.2136 49.7844Z" fill="#9DC4AD"/>
</svg>
