<svg width="624" height="584" viewBox="0 0 624 584" fill="none" xmlns="http://www.w3.org/2000/svg">
<rect x="301.648" y="292.856" width="12.1452" height="270.867" rx="6.07259" transform="rotate(51.261 301.648 292.856)" fill="#9DC4AD"/>
<rect width="110.658" height="56.7799" rx="28.39" transform="matrix(0.626059 0.77916 -0.77991 0.626657 282.795 244.826)" fill="#9DC4AD"/>
<rect width="110.658" height="56.7799" rx="28.39" transform="matrix(0.626059 0.77916 -0.77991 0.626657 467.076 96.0664)" fill="#9DC4AD"/>
<rect width="128.909" height="56.7916" rx="28.3958" transform="matrix(0.857108 0.515138 -0.516406 0.856344 428.369 106.72)" fill="#FFDF8E"/>
<rect width="128.909" height="56.7916" rx="28.3958" transform="matrix(0.857108 0.515138 -0.516406 0.856344 388.072 140.872)" fill="#9DC4AD"/>
<rect width="128.909" height="56.7916" rx="28.3958" transform="matrix(0.857108 0.515138 -0.516406 0.856344 347.771 175.022)" fill="#FFDF8E"/>
<rect width="128.909" height="56.7916" rx="28.3958" transform="matrix(0.857108 0.515138 -0.516406 0.856344 307.475 209.175)" fill="#9DC4AD"/>
<rect width="128.909" height="56.7916" rx="28.3958" transform="matrix(0.857108 0.515138 -0.516406 0.856344 267.178 243.327)" fill="#FFDF8E"/>
</svg>
