<svg width="624" height="584" viewBox="0 0 624 584" fill="none" xmlns="http://www.w3.org/2000/svg">
<rect x="301.648" y="292.858" width="12.1452" height="270.868" rx="6.07259" transform="rotate(51.261 301.648 292.858)" fill="#9DC4AD"/>
<rect width="110.658" height="56.78" rx="28.39" transform="matrix(0.626058 0.77916 -0.77991 0.626657 282.791 244.827)" fill="#FFDF8E"/>
<rect width="110.658" height="56.78" rx="28.39" transform="matrix(0.626058 0.77916 -0.77991 0.626657 467.074 96.0674)" fill="#FFDF8E"/>
<rect width="128.909" height="56.7918" rx="28.3959" transform="matrix(0.857108 0.515137 -0.516407 0.856343 428.367 106.721)" fill="#9DC4AD"/>
<rect width="128.909" height="56.7918" rx="28.3959" transform="matrix(0.857108 0.515137 -0.516407 0.856343 388.068 140.873)" fill="#FFDF8E"/>
<rect width="128.909" height="56.7918" rx="28.3959" transform="matrix(0.857108 0.515137 -0.516407 0.856343 347.77 175.024)" fill="#9DC4AD"/>
<rect width="128.909" height="56.7918" rx="28.3959" transform="matrix(0.857108 0.515137 -0.516407 0.856343 307.471 209.177)" fill="#FFDF8E"/>
<rect width="128.909" height="56.7918" rx="28.3959" transform="matrix(0.857108 0.515137 -0.516407 0.856343 267.176 243.329)" fill="#9DC4AD"/>
</svg>
