<svg width="876" height="275" viewBox="0 0 876 275" fill="none" xmlns="http://www.w3.org/2000/svg">
<path d="M873.211 3.5C872.061 4.50353 870.9 5.49713 869.73 6.48079C869.72 6.49072 869.71 6.50066 869.7 6.50066C832.289 38.4646 792.978 67.1299 752.536 92.7051C746.635 96.441 740.703 100.107 734.751 103.714C723.988 110.222 713.155 116.532 702.262 122.622C702.192 122.662 702.122 122.702 702.062 122.741C701.992 122.781 701.922 122.811 701.852 122.841L701.792 122.871C701.792 122.871 701.762 122.891 701.742 122.9C661.82 145.237 621.119 164.741 580.327 181.622C580.307 181.632 580.297 181.632 580.277 181.642C572.865 184.702 565.433 187.693 558.021 190.584C542.996 196.446 527.982 201.961 513.008 207.138C506.026 209.552 499.054 211.887 492.092 214.142C472.066 220.65 452.15 226.552 432.405 231.868C419.371 235.376 406.417 238.635 393.573 241.645C393.553 241.645 393.533 241.645 393.513 241.645C393.163 241.725 392.823 241.804 392.483 241.884H392.473C377.439 245.381 362.555 248.541 347.85 251.372C339.838 252.913 331.886 254.353 323.984 255.705C280.441 263.137 238.679 267.638 199.728 269.506H199.698C165.588 271.135 133.639 270.738 104.521 268.492H104.511C73.3616 266.088 45.4536 261.577 21.6368 255.178C21.6168 255.178 21.5968 255.178 21.5868 255.178C14.5648 253.3 7.90286 251.253 1.62106 249.038C1.48102 248.998 1.35098 248.948 1.21094 248.898" stroke="#9DC4AD" stroke-width="7.02"/>
</svg>
