<svg width="333" height="333" viewBox="0 0 333 333" fill="none" xmlns="http://www.w3.org/2000/svg">
<circle cx="166.269" cy="166.812" r="117.5" transform="rotate(47.2918 166.269 166.812)" fill="#FFDF8E"/>
<path d="M198.674 56.3064C229.186 72.814 283.618 138.19 250.197 201.872C213.18 272.403 142.647 270.402 106.133 238.388C73.4195 209.706 56.1105 132.476 115.136 94.3233C177.758 53.8452 242.514 121.288 229.187 170.858C217.767 213.33 177.664 231.385 145.149 221.38C101.852 208.058 102.217 149.858 120.599 132.077C145.149 108.33 190.032 112.752 197.017 149.258C204.003 185.764 163.157 209.375 145.149 186.865C132.967 171.638 138.646 152.349 151.686 152.349C168.939 152.349 165.658 168.357 165.658 168.357" stroke="#9DB8D6" stroke-width="5.40468" stroke-linecap="round"/>
</svg>
