<svg width="129" height="177" viewBox="0 0 129 177" fill="none" xmlns="http://www.w3.org/2000/svg">
<path fill-rule="evenodd" clip-rule="evenodd" d="M63.529 167.559C93.014 167.559 117.222 143.694 117.624 114.282C118.026 84.87 94.4714 61.0056 64.9864 61.0056C35.5014 61.0056 11.2939 84.87 10.8916 114.282C10.4893 143.694 34.0441 167.559 63.529 167.559ZM63.4041 176.692C97.9219 176.692 126.286 148.75 126.758 114.282C127.229 79.8143 99.6291 51.8726 65.1113 51.8726C30.5935 51.8726 2.22915 79.8143 1.75772 114.282C1.28628 148.75 28.8863 176.692 63.4041 176.692Z" fill="#FFDF8E"/>
<path d="M86.7186 56.6706C86.6099 64.6182 75.3557 71.061 61.5816 71.061C47.8076 71.061 36.7296 64.6182 36.8383 56.6706C36.947 48.7231 48.2012 42.2803 61.9753 42.2803C75.7493 42.2803 86.8273 48.7231 86.7186 56.6706Z" fill="#FFDF8E"/>
<path d="M93.282 32.6866C93.0405 50.3479 78.8871 64.6652 61.6695 64.6652C44.4519 64.6652 30.6902 50.3479 30.9318 32.6866C31.1733 15.0253 45.3267 0.708008 62.5443 0.708008C79.7618 0.708008 93.5236 15.0253 93.282 32.6866Z" fill="#9DC4AD"/>
</svg>
