<svg width="130" height="154" viewBox="0 0 130 154" fill="none" xmlns="http://www.w3.org/2000/svg">
<path fill-rule="evenodd" clip-rule="evenodd" d="M66.823 144.77C96.2995 144.77 119.505 120.797 118.66 91.2313C117.816 61.6657 93.2422 37.6923 63.7656 37.6923C34.2891 37.6923 11.084 61.6657 11.9282 91.2313C12.7723 120.797 37.3465 144.77 66.823 144.77ZM67.0847 153.938C101.603 153.938 128.783 125.863 127.794 91.2313C126.805 56.5995 98.0217 28.5249 63.5039 28.5249C28.9861 28.5249 1.8055 56.5995 2.79432 91.2313C3.78313 125.863 32.5669 153.938 67.0847 153.938Z" fill="#FFDF8E"/>
<path d="M83.6069 35.0825C83.7701 40.7963 75.7746 45.4283 65.7485 45.4283C55.7224 45.4283 47.4624 40.7963 47.2993 35.0825C47.1362 29.3688 55.1316 24.7368 65.1577 24.7368C75.1838 24.7368 83.4438 29.3688 83.6069 35.0825Z" fill="#FFDF8E"/>
<path d="M85.9521 20.9487C86.2824 32.5184 77.2928 41.8975 65.8733 41.8975C54.4537 41.8975 44.9285 32.5184 44.5981 20.9487C44.2678 9.37906 53.2574 0 64.677 0C76.0966 0 85.6218 9.37906 85.9521 20.9487Z" fill="#9DB8D6"/>
</svg>
