<svg width="231" height="314" viewBox="0 0 231 314" fill="none" xmlns="http://www.w3.org/2000/svg">
<path d="M110.332 90.9311C120.952 76.0716 95.4134 28.1964 139.496 33.083C199.581 39.7435 136.035 99.4835 177.774 164.677" stroke="#9DC4AD" stroke-width="7.43768"/>
<path d="M149.594 238.329C152.598 275.824 148.29 307.401 70.7932 290.621C-10.7833 272.957 3.2126 241.424 19.0725 210.067C33.8402 180.869 67.7326 121.02 103.775 128.824C139.818 136.629 146.944 205.245 149.594 238.329Z" fill="#9DB8D6"/>
<ellipse rx="12.7225" ry="13.0361" transform="matrix(0.977351 0.211625 -0.199741 0.979849 106.258 116.024)" fill="url(#paint0_linear_290_1256)"/>
<ellipse rx="7.06805" ry="7.24227" transform="matrix(0.977351 0.211625 -0.199741 0.979849 110.309 96.1546)" fill="url(#paint1_linear_290_1256)"/>
<defs>
<linearGradient id="paint0_linear_290_1256" x1="25.445" y1="26.0722" x2="9.59327" y2="-4.90853" gradientUnits="userSpaceOnUse">
<stop offset="0.210417" stop-color="#9DC5AB"/>
<stop offset="0.861458" stop-color="#9DB8D6"/>
</linearGradient>
<linearGradient id="paint1_linear_290_1256" x1="14.1361" y1="14.4845" x2="5.32959" y2="-2.72696" gradientUnits="userSpaceOnUse">
<stop offset="0.210417" stop-color="#9DC5AB"/>
<stop offset="0.861458" stop-color="#9DB8D6"/>
</linearGradient>
</defs>
</svg>
