<svg width="733" height="461" viewBox="0 0 733 461" fill="none" xmlns="http://www.w3.org/2000/svg">
<path d="M70.7797 412.305C73.1352 407.857 75.747 404.883 78.6151 403.384C81.4988 401.856 84.664 402.005 88.1106 403.83C89.9075 404.781 91.2825 405.924 92.2354 407.259C93.1745 408.548 93.7367 410.015 93.922 411.66C94.0778 413.289 93.887 415.074 93.3496 417.014C92.8122 418.955 91.9507 421.045 90.7651 423.284L89.291 426.068L100.073 431.777L97.1244 437.345L66.9446 421.363C67.3364 419.911 67.9015 418.381 68.6399 416.773C69.3644 415.12 70.0777 413.63 70.7797 412.305ZM75.8066 414.457C75.0579 415.871 74.4859 417.058 74.0907 418.018L84.5188 423.541L85.9461 420.845C87.3657 418.165 88.0894 415.907 88.1173 414.074C88.1158 412.225 87.0693 410.747 84.9777 409.639C83.9762 409.109 83.0352 408.856 82.1549 408.88C81.2746 408.904 80.4635 409.153 79.7218 409.628C78.9801 410.103 78.286 410.773 77.6395 411.637C76.9792 412.457 76.3682 413.397 75.8066 414.457Z" fill="white"/>
<path d="M115.705 395.479C116.683 393.889 117.34 392.63 117.676 391.701L111.969 388.191C111.71 388.422 111.371 388.782 110.954 389.269C110.537 389.756 110.128 390.326 109.726 390.979C109.377 391.547 109.061 392.155 108.78 392.803C108.516 393.424 108.349 394.045 108.279 394.667C108.226 395.261 108.326 395.831 108.577 396.377C108.8 396.906 109.224 397.362 109.848 397.746C111.069 398.497 112.157 398.638 113.111 398.168C114.037 397.681 114.901 396.785 115.705 395.479ZM96.236 384.089C97.2839 382.386 98.3788 381.083 99.5208 380.181C100.663 379.279 101.827 378.723 103.012 378.513C104.216 378.275 105.458 378.354 106.74 378.751C108.011 379.103 109.3 379.68 110.606 380.484L124.106 388.788C123.787 389.688 123.243 391.017 122.475 392.775C121.752 394.522 120.771 396.404 119.531 398.419C118.71 399.754 117.831 400.896 116.895 401.846C115.958 402.796 114.961 403.494 113.904 403.94C112.865 404.357 111.751 404.513 110.563 404.409C109.393 404.276 108.14 403.799 106.806 402.978C105.528 402.192 104.598 401.287 104.015 400.263C103.449 399.21 103.158 398.092 103.143 396.909C103.099 395.708 103.304 394.484 103.758 393.237C104.201 391.944 104.798 390.687 105.549 389.466C105.899 388.898 106.308 388.328 106.777 387.756C107.218 387.166 107.742 386.569 108.349 385.964L107.498 385.44C106.902 385.073 106.29 384.795 105.663 384.605C105.037 384.415 104.411 384.383 103.786 384.507C103.151 384.586 102.536 384.853 101.942 385.31C101.366 385.738 100.807 386.392 100.265 387.272C99.5319 388.465 98.9447 389.61 98.5038 390.709C98.0628 391.807 97.7638 392.739 97.6067 393.503L93.0402 391.574C93.2147 390.782 93.5727 389.691 94.1141 388.302C94.6554 386.913 95.3627 385.509 96.236 384.089Z" fill="white"/>
<path d="M109.938 365.272C110.05 364.821 110.218 364.289 110.444 363.674C110.67 363.059 110.938 362.413 111.249 361.735C111.559 361.058 111.916 360.372 112.319 359.678C112.714 358.937 113.15 358.225 113.627 357.542C114.448 356.367 115.339 355.322 116.302 354.409C117.265 353.496 118.269 352.815 119.314 352.365C120.36 351.916 121.427 351.726 122.517 351.796C123.626 351.838 124.713 352.232 125.779 352.976C126.927 353.777 127.678 354.769 128.031 355.951C128.385 357.133 128.467 358.267 128.278 359.354C129.601 358.449 130.942 357.983 132.302 357.956C133.662 357.93 135.039 358.404 136.433 359.377C137.554 360.159 138.339 361.073 138.788 362.118C139.256 363.136 139.454 364.25 139.382 365.46C139.301 366.623 138.979 367.842 138.416 369.115C137.879 370.407 137.153 371.709 136.237 373.021C135.131 374.606 133.964 375.987 132.736 377.163C131.536 378.358 130.482 379.227 129.573 379.772L126.157 376.106C126.738 375.74 127.579 375.087 128.681 374.149C129.756 373.192 130.837 371.934 131.925 370.377C134.024 367.37 134.199 365.256 132.449 364.035C131.821 363.596 131.22 363.38 130.646 363.386C130.073 363.392 129.547 363.534 129.07 363.81C128.565 364.067 128.104 364.437 127.687 364.918C127.242 365.38 126.848 365.857 126.505 366.349L123.643 370.449L119.953 367.873L122.786 363.814C123.492 362.803 123.916 361.818 124.056 360.859C124.189 359.854 123.79 359.027 122.861 358.378C122.096 357.844 121.246 357.779 120.313 358.185C119.371 358.544 118.462 359.352 117.584 360.609C117.202 361.156 116.852 361.745 116.534 362.376C116.188 362.988 115.878 363.606 115.606 364.229C115.353 364.824 115.142 365.388 114.973 365.921C114.777 366.435 114.648 366.853 114.586 367.175L109.938 365.272Z" fill="white"/>
<path d="M162.185 337.561L158.427 342.303L149.846 335.501L143.728 343.221L152.309 350.022L148.551 354.764L128.058 338.521L131.816 333.779L139.809 340.115L145.928 332.395L137.934 326.06L141.692 321.318L162.185 337.561Z" fill="white"/>
<path d="M176.474 301.623C178.007 303.01 179.202 304.496 180.059 306.082C180.917 307.667 181.422 309.27 181.573 310.891C181.725 312.512 181.522 314.127 180.965 315.736C180.43 317.32 179.537 318.804 178.284 320.188C177.031 321.572 175.644 322.609 174.12 323.298C172.597 323.988 171.022 324.337 169.394 324.348C167.766 324.358 166.109 324.028 164.424 323.356C162.761 322.66 161.163 321.619 159.631 320.232C158.099 318.845 156.916 317.37 156.083 315.807C155.248 314.197 154.754 312.581 154.603 310.96C154.473 309.315 154.689 307.711 155.248 306.149C155.783 304.565 156.665 303.093 157.895 301.734C159.126 300.375 160.502 299.35 162.026 298.661C163.547 297.924 165.121 297.551 166.749 297.541C168.377 297.53 170.022 297.873 171.685 298.569C173.346 299.218 174.942 300.236 176.474 301.623ZM172.314 306.22C170.386 304.475 168.486 303.519 166.613 303.353C164.738 303.14 163.13 303.774 161.788 305.257C160.446 306.74 159.963 308.416 160.339 310.285C160.713 312.107 161.864 313.891 163.791 315.635C165.744 317.402 167.658 318.393 169.533 318.606C171.43 318.795 173.05 318.148 174.392 316.665C175.734 315.182 176.206 313.519 175.807 311.674C175.431 309.805 174.266 307.987 172.314 306.22Z" fill="white"/>
<path d="M201.655 276.746C203.093 278.23 204.188 279.791 204.94 281.429C205.693 283.068 206.091 284.701 206.137 286.328C206.182 287.955 205.874 289.553 205.213 291.122C204.576 292.668 203.587 294.091 202.247 295.39C200.906 296.689 199.453 297.633 197.888 298.221C196.323 298.809 194.728 299.055 193.103 298.959C191.478 298.863 189.847 298.425 188.209 297.645C186.595 296.842 185.069 295.698 183.63 294.214C182.192 292.73 181.108 291.181 180.379 289.566C179.651 287.905 179.264 286.261 179.219 284.633C179.198 282.983 179.517 281.397 180.178 279.875C180.815 278.329 181.792 276.918 183.108 275.642C184.425 274.366 185.865 273.434 187.43 272.846C188.996 272.21 190.592 271.941 192.217 272.037C193.842 272.133 195.461 272.583 197.075 273.386C198.69 274.142 200.216 275.262 201.655 276.746ZM197.202 281.061C195.393 279.194 193.559 278.116 191.702 277.828C189.845 277.492 188.198 278.02 186.762 279.412C185.326 280.804 184.734 282.445 184.987 284.335C185.241 286.177 186.273 288.032 188.083 289.899C189.915 291.79 191.76 292.904 193.617 293.239C195.498 293.551 197.157 293.012 198.593 291.62C200.029 290.228 200.609 288.599 200.331 286.732C200.078 284.842 199.035 282.952 197.202 281.061Z" fill="white"/>
<path d="M214.307 238.792C214.096 239.059 213.86 239.347 213.598 239.656C213.361 239.944 213.061 240.286 212.698 240.682C212.334 241.078 211.905 241.551 211.41 242.101C210.919 242.605 210.351 243.197 209.703 243.877C208.718 244.931 207.923 245.977 207.317 247.015C206.69 248.028 206.295 249.083 206.134 250.182C205.951 251.254 206.012 252.383 206.317 253.567C206.622 254.751 207.192 256.015 208.027 257.361C208.384 256.184 208.902 255.068 209.58 254.012C210.283 252.935 211.08 252.019 211.969 251.264C214.613 249.022 217.422 248.082 220.396 248.445C223.37 248.808 226.204 250.578 228.899 253.756C230.192 255.281 231.151 256.85 231.776 258.462C232.4 260.074 232.683 261.67 232.624 263.25C232.565 264.83 232.179 266.359 231.466 267.837C230.732 269.291 229.64 270.632 228.191 271.861C226.386 273.391 224.625 274.382 222.909 274.832C221.172 275.257 219.471 275.235 217.806 274.767C216.12 274.274 214.455 273.392 212.809 272.122C211.163 270.851 209.532 269.262 207.915 267.356C205.802 264.864 204.141 262.493 202.93 260.241C201.724 257.943 201.009 255.708 200.785 253.538C200.587 251.346 200.895 249.183 201.709 247.051C202.527 244.871 203.901 242.678 205.833 240.472C206.826 239.324 207.661 238.376 208.337 237.627C209.039 236.857 209.708 236.049 210.346 235.203L214.307 238.792ZM211.303 261.533C211.532 261.906 211.852 262.335 212.261 262.818C212.649 263.275 213.016 263.707 213.361 264.114C214.331 265.258 215.302 266.248 216.274 267.085C217.246 267.922 218.213 268.522 219.177 268.885C220.14 269.248 221.089 269.361 222.022 269.225C222.956 269.089 223.88 268.633 224.795 267.857C225.583 267.188 226.14 266.454 226.466 265.653C226.792 264.852 226.909 264.01 226.816 263.127C226.723 262.245 226.453 261.359 226.006 260.471C225.562 259.536 224.963 258.623 224.209 257.734C223.562 256.971 222.858 256.322 222.098 255.786C221.342 255.204 220.547 254.807 219.713 254.597C218.883 254.34 218.022 254.304 217.132 254.491C216.241 254.678 215.351 255.149 214.462 255.904C213.597 256.637 212.862 257.522 212.257 258.56C211.676 259.577 211.358 260.568 211.303 261.533Z" fill="white"/>
<path d="M252.467 235.475C250.861 233.305 249.116 231.983 247.232 231.511C245.376 231.019 243.362 231.576 241.191 233.182C240.736 233.519 240.273 233.903 239.804 234.333C239.341 234.717 238.919 235.154 238.535 235.645L247.428 247.663C248.074 247.64 248.845 247.505 249.74 247.258C250.642 246.964 251.495 246.519 252.299 245.924C254.068 244.616 254.908 243.061 254.819 241.261C254.758 239.44 253.974 237.512 252.467 235.475ZM257.391 231.707C258.581 233.315 259.457 234.947 260.02 236.604C260.609 238.242 260.872 239.83 260.809 241.37C260.745 242.909 260.322 244.383 259.54 245.791C258.784 247.18 257.67 248.419 256.196 249.51C255.204 250.243 254.204 250.797 253.195 251.17C252.186 251.544 251.304 251.781 250.55 251.883L256.587 260.043L251.724 263.641L231.174 235.867C231.967 234.866 232.998 233.709 234.266 232.397C235.535 231.085 236.973 229.835 238.581 228.645C240.242 227.416 241.918 226.57 243.607 226.108C245.297 225.645 246.954 225.559 248.579 225.85C250.211 226.094 251.774 226.721 253.267 227.73C254.768 228.693 256.142 230.019 257.391 231.707Z" fill="white"/>
<path d="M279.669 227.433C281.236 226.419 282.371 225.565 283.074 224.872L279.434 219.247C279.1 219.345 278.639 219.523 278.053 219.783C277.467 220.044 276.853 220.382 276.209 220.798C275.649 221.161 275.103 221.574 274.569 222.038C274.064 222.484 273.646 222.973 273.315 223.505C273.012 224.019 272.857 224.576 272.849 225.177C272.822 225.75 273.008 226.344 273.407 226.96C274.186 228.163 275.107 228.758 276.17 228.745C277.215 228.704 278.382 228.266 279.669 227.433ZM266.997 208.774C268.676 207.687 270.226 206.982 271.645 206.659C273.064 206.337 274.353 206.336 275.514 206.657C276.703 206.96 277.79 207.566 278.776 208.476C279.772 209.341 280.687 210.416 281.52 211.704L290.131 225.01C289.456 225.685 288.394 226.651 286.944 227.907C285.54 229.173 283.844 230.449 281.857 231.735C280.542 232.586 279.257 233.239 278.003 233.693C276.748 234.148 275.548 234.349 274.402 234.296C273.285 234.225 272.212 233.887 271.185 233.281C270.186 232.657 269.26 231.688 268.409 230.373C267.594 229.113 267.144 227.896 267.058 226.721C267 225.527 267.219 224.393 267.715 223.318C268.192 222.215 268.904 221.198 269.85 220.268C270.807 219.292 271.887 218.414 273.09 217.636C273.65 217.273 274.264 216.935 274.934 216.62C275.586 216.278 276.316 215.964 277.125 215.679L276.581 214.84C276.201 214.252 275.769 213.738 275.285 213.297C274.801 212.856 274.25 212.557 273.633 212.4C273.025 212.198 272.355 212.175 271.623 212.332C270.918 212.47 270.132 212.82 269.265 213.381C268.089 214.142 267.066 214.923 266.195 215.725C265.325 216.527 264.654 217.239 264.183 217.861L260.891 214.155C261.39 213.514 262.183 212.684 263.269 211.663C264.355 210.642 265.598 209.679 266.997 208.774Z" fill="white"/>
<path d="M287.464 197.685C287.759 197.326 288.14 196.918 288.608 196.46C289.077 196.003 289.597 195.535 290.169 195.057C290.741 194.579 291.358 194.113 292.021 193.66C292.696 193.162 293.396 192.707 294.121 192.295C295.367 191.588 296.621 191.029 297.884 190.619C299.146 190.209 300.345 190.026 301.482 190.07C302.619 190.115 303.664 190.403 304.618 190.935C305.6 191.45 306.413 192.273 307.055 193.403C307.746 194.621 307.997 195.839 307.808 197.058C307.618 198.277 307.204 199.337 306.565 200.236C308.149 199.988 309.56 200.145 310.799 200.707C312.038 201.268 313.077 202.288 313.917 203.766C314.591 204.955 314.907 206.118 314.862 207.254C314.847 208.375 314.546 209.466 313.96 210.527C313.387 211.542 312.572 212.503 311.515 213.41C310.475 214.346 309.259 215.208 307.868 215.999C306.187 216.953 304.539 217.697 302.925 218.23C301.328 218.792 300.002 219.124 298.947 219.224L297.441 214.445C298.123 214.364 299.163 214.137 300.562 213.765C301.944 213.363 303.461 212.693 305.113 211.755C308.302 209.945 309.369 208.112 308.316 206.257C307.937 205.59 307.488 205.136 306.968 204.895C306.447 204.654 305.912 204.555 305.362 204.599C304.796 204.614 304.221 204.749 303.637 205.004C303.037 205.23 302.476 205.491 301.954 205.787L297.606 208.256L295.384 204.343L299.689 201.898C300.761 201.289 301.567 200.582 302.107 199.778C302.659 198.928 302.655 198.01 302.096 197.024C301.635 196.212 300.896 195.789 299.879 195.753C298.875 195.672 297.706 196.01 296.372 196.767C295.793 197.096 295.223 197.477 294.664 197.909C294.088 198.313 293.543 198.737 293.029 199.183C292.544 199.611 292.111 200.03 291.73 200.438C291.332 200.817 291.035 201.139 290.84 201.403L287.464 197.685Z" fill="white"/>
<path d="M346.55 195.159L341.117 197.822L336.299 187.989L327.454 192.324L332.272 202.157L326.84 204.819L315.332 181.337L320.765 178.675L325.253 187.834L334.098 183.499L329.609 174.34L335.042 171.678L346.55 195.159Z" fill="white"/>
<path d="M387.485 178.047L381.869 180.296L372.147 156.02L377.764 153.771L387.485 178.047ZM357.4 172.321C357.815 172.011 358.437 171.636 359.266 171.196C360.126 170.744 360.974 170.351 361.81 170.016C363.14 169.483 364.455 169.136 365.755 168.975C367.086 168.801 368.321 168.881 369.46 169.215C370.617 169.505 371.655 170.077 372.571 170.931C373.506 171.742 374.258 172.859 374.828 174.282C375.411 175.736 375.659 177.073 375.573 178.293C375.487 179.512 375.125 180.627 374.488 181.636C373.851 182.645 372.96 183.558 371.815 184.376C370.701 185.181 369.386 185.887 367.87 186.494C366.106 187.201 364.398 187.777 362.745 188.223C361.124 188.657 359.434 189.011 357.676 189.284L348.196 165.611L353.813 163.362L357.4 172.321ZM365.965 182.141C367.419 181.558 368.446 180.806 369.046 179.883C369.665 178.917 369.708 177.769 369.175 176.438C368.902 175.758 368.534 175.241 368.069 174.888C367.605 174.536 367.07 174.319 366.463 174.239C365.875 174.115 365.247 174.116 364.578 174.24C363.941 174.351 363.297 174.537 362.647 174.798C362.059 175.033 361.422 175.324 360.735 175.671C360.066 175.975 359.525 176.281 359.11 176.591L361.88 183.507C362.307 183.408 362.92 183.234 363.718 182.986C364.504 182.707 365.253 182.426 365.965 182.141Z" fill="white"/>
<path d="M394.146 162.056C393.451 159.863 393.159 157.84 393.271 155.986C393.414 154.123 393.855 152.479 394.592 151.056C395.32 149.602 396.297 148.383 397.524 147.399C398.741 146.384 400.08 145.644 401.541 145.181C404.973 144.093 407.98 144.311 410.561 145.835C413.174 147.35 415.151 150.22 416.491 154.446C416.592 154.763 416.692 155.134 416.791 155.557C416.912 155.938 417.007 156.293 417.076 156.621L400.633 161.835C401.426 163.786 402.619 165.121 404.211 165.841C405.824 166.518 407.823 166.479 410.206 165.723C411.604 165.28 412.834 164.75 413.898 164.133C414.993 163.506 415.829 162.943 416.405 162.446L418.664 166.923C418.397 167.182 418.007 167.498 417.496 167.87C417.006 168.2 416.416 168.545 415.725 168.903C415.077 169.284 414.354 169.653 413.558 170.01C412.762 170.367 411.936 170.682 411.078 170.954C408.885 171.649 406.878 171.936 405.056 171.814C403.224 171.661 401.602 171.179 400.191 170.367C398.77 169.524 397.558 168.405 396.556 167.009C395.544 165.581 394.741 163.93 394.146 162.056ZM410.059 154.177C409.807 153.383 409.459 152.672 409.015 152.043C408.561 151.383 408.031 150.869 407.425 150.502C406.841 150.092 406.185 149.846 405.459 149.761C404.755 149.635 403.973 149.708 403.116 149.98C402.226 150.262 401.503 150.683 400.946 151.245C400.38 151.774 399.944 152.384 399.639 153.075C399.365 153.757 399.212 154.487 399.179 155.267C399.147 156.046 399.199 156.817 399.335 157.578L410.059 154.177Z" fill="white"/>
<path d="M458.078 158.381C457.133 158.584 456.164 158.758 455.173 158.903C454.181 159.048 453.218 159.17 452.285 159.268C451.384 159.359 450.532 159.44 449.729 159.511C448.919 159.548 448.239 159.558 447.689 159.54L442.383 134.854C442.877 134.611 443.504 134.357 444.265 134.091C445.019 133.793 445.829 133.516 446.695 133.262C447.586 132.968 448.518 132.7 449.488 132.457C450.452 132.182 451.406 131.942 452.351 131.739C455.806 130.997 458.631 131.054 460.827 131.912C463.016 132.737 464.352 134.274 464.835 136.523C465.087 137.696 465.018 138.802 464.628 139.84C464.237 140.879 463.619 141.728 462.772 142.387C464.043 142.591 465.207 143.091 466.265 143.887C467.322 144.682 468.044 145.976 468.429 147.769C468.982 150.343 468.399 152.548 466.68 154.384C464.954 156.187 462.086 157.519 458.078 158.381ZM454.831 142.56C456.297 142.245 457.457 141.774 458.311 141.147C459.198 140.513 459.505 139.561 459.231 138.29C459.098 137.671 458.827 137.2 458.417 136.879C458.04 136.551 457.566 136.329 456.995 136.213C456.425 136.097 455.79 136.08 455.092 136.162C454.387 136.211 453.659 136.317 452.91 136.478C452.323 136.604 451.642 136.767 450.867 136.968C450.124 137.162 449.532 137.34 449.09 137.503L450.382 143.516L454.831 142.56ZM452.725 154.417C453.13 154.398 453.78 154.327 454.674 154.203C455.593 154.039 456.444 153.873 457.226 153.705C458.986 153.327 460.384 152.771 461.419 152.037C462.487 151.296 462.874 150.241 462.58 148.872C462.293 147.536 461.559 146.739 460.379 146.482C459.224 146.184 457.799 146.218 456.104 146.582L451.265 147.622L452.725 154.417Z" fill="white"/>
<path d="M477.338 140.814C476.998 138.54 477.03 136.496 477.434 134.683C477.87 132.865 478.565 131.312 479.519 130.024C480.467 128.703 481.625 127.654 482.992 126.877C484.354 126.067 485.794 125.549 487.31 125.322C490.871 124.791 493.805 125.482 496.113 127.396C498.453 129.304 499.951 132.451 500.605 136.836C500.655 137.166 500.695 137.547 500.726 137.981C500.785 138.376 500.822 138.741 500.839 139.076L483.778 141.623C484.252 143.675 485.219 145.182 486.677 146.144C488.163 147.068 490.142 147.346 492.615 146.977C494.065 146.76 495.364 146.431 496.512 145.991C497.692 145.545 498.607 145.122 499.255 144.722L500.777 149.499C500.472 149.713 500.037 149.964 499.473 150.25C498.937 150.499 498.3 150.745 497.562 150.99C496.861 151.263 496.089 151.513 495.247 151.74C494.404 151.967 493.538 152.147 492.648 152.28C490.373 152.619 488.346 152.585 486.566 152.177C484.781 151.735 483.257 151.002 481.991 149.978C480.721 148.92 479.702 147.623 478.934 146.087C478.16 144.517 477.628 142.759 477.338 140.814ZM494.297 135.553C494.174 134.729 493.943 133.971 493.604 133.281C493.26 132.557 492.818 131.966 492.277 131.507C491.765 131.01 491.157 130.663 490.454 130.465C489.778 130.229 488.995 130.177 488.105 130.31C487.182 130.448 486.401 130.749 485.763 131.215C485.12 131.648 484.593 132.182 484.182 132.816C483.804 133.446 483.537 134.143 483.382 134.907C483.226 135.672 483.156 136.441 483.17 137.214L494.297 135.553Z" fill="white"/>
<path d="M513.807 148.648L511.963 122.563L517.998 122.137L519.493 143.284L527.673 142.705L526.178 121.558L532.213 121.132L533.708 142.279L541.887 141.7L540.392 120.553L546.427 120.127L547.922 141.274L551.912 140.992L552.783 153.311L547.397 153.692L546.875 146.31L513.807 148.648Z" fill="white"/>
<path d="M585.298 120.025L585.067 146.174L579.067 146.121C579.084 144.221 579.1 142.337 579.117 140.471C579.167 138.605 579.199 136.871 579.213 135.271C579.261 133.672 579.29 132.289 579.3 131.122C579.344 129.922 579.368 129.039 579.373 128.473C578.362 129.764 577.316 131.188 576.235 132.745C575.155 134.302 574.074 135.859 572.994 137.416C571.947 138.974 570.95 140.498 570.003 141.99C569.057 143.482 568.228 144.824 567.517 146.018L562.168 145.971L562.399 119.822L568.349 119.875C568.332 121.808 568.299 123.658 568.25 125.424C568.235 127.157 568.221 128.74 568.208 130.174C568.195 131.607 568.167 132.857 568.125 133.923C568.115 134.99 568.108 135.806 568.103 136.373C569.049 134.948 570.029 133.49 571.042 131.999C572.055 130.474 573.068 129 574.081 127.576C575.127 126.118 576.156 124.744 577.168 123.453C578.179 122.162 579.156 121.004 580.099 119.979L585.298 120.025Z" fill="white"/>
<path d="M623.637 143.713L622.697 156.027L617.363 155.62L617.926 148.242L597.684 146.697L599.674 120.623L605.707 121.083L604.094 142.222L613.666 142.952L615.279 121.814L621.311 122.274L619.698 143.413L623.637 143.713Z" fill="white"/>
<path d="M659.166 148.578L657.4 160.801L652.105 160.036L653.163 152.712L633.071 149.81L636.81 123.928L642.798 124.793L639.767 145.776L649.268 147.148L652.299 126.166L658.287 127.031L655.256 148.013L659.166 148.578Z" fill="white"/>
<path d="M699.223 162.094L693.318 160.779L699.003 135.254L704.908 136.57L699.223 162.094ZM677.628 140.379C678.145 140.358 678.869 140.4 679.802 140.505C680.767 140.618 681.689 140.772 682.568 140.968C683.967 141.279 685.248 141.735 686.412 142.336C687.609 142.944 688.583 143.708 689.334 144.626C690.126 145.52 690.658 146.578 690.932 147.8C691.246 148.997 691.237 150.343 690.903 151.84C690.563 153.369 690.013 154.613 689.253 155.57C688.493 156.528 687.565 157.244 686.47 157.717C685.374 158.19 684.123 158.44 682.716 158.469C681.342 158.504 679.858 158.344 678.264 157.989C676.409 157.576 674.674 157.087 673.058 156.522C671.475 155.965 669.881 155.302 668.276 154.535L673.82 129.645L679.726 130.96L677.628 140.379ZM679.15 153.32C680.68 153.661 681.952 153.62 682.968 153.197C684.024 152.749 684.708 151.826 685.02 150.427C685.179 149.711 685.167 149.077 684.983 148.523C684.799 147.97 684.479 147.489 684.024 147.08C683.608 146.646 683.089 146.292 682.468 146.017C681.878 145.749 681.242 145.539 680.559 145.387C679.941 145.249 679.25 145.129 678.487 145.028C677.764 144.901 677.144 144.848 676.627 144.869L675.008 152.141C675.416 152.3 676.02 152.503 676.819 152.749C677.625 152.963 678.402 153.153 679.15 153.32Z" fill="white"/>
</svg>
