<svg width="318" height="132" viewBox="0 0 318 132" fill="none" xmlns="http://www.w3.org/2000/svg">
<path d="M29.3456 69.7664C27.5213 69.9489 25.6739 70.0667 23.8032 70.1198C21.9359 70.2062 20.2874 70.1366 18.8579 69.9111L15.5082 36.4282C16.2246 36.2226 16.9924 36.0285 17.8116 35.846C18.6276 35.6304 19.4634 35.4463 20.3191 35.2937C21.1748 35.1411 22.0156 35.0067 22.8415 34.8906C23.7006 34.7712 24.5115 34.6733 25.2744 34.597C27.3639 34.3879 29.3208 34.3596 31.1451 34.5121C32.966 34.6315 34.5597 34.9913 35.9263 35.5915C37.326 36.1885 38.4504 37.0475 39.2996 38.1686C40.1487 39.2896 40.6612 40.7291 40.8371 42.4869C40.9997 44.1122 40.741 45.545 40.0611 46.7855C39.4144 48.0227 38.4294 49.0593 37.106 49.8952C39.2653 50.3826 40.9104 51.2565 42.0415 52.5169C43.1726 53.7772 43.8426 55.4522 44.0517 57.5417C44.4067 61.0907 43.3803 63.8901 40.9724 65.94C38.5612 67.9567 34.6856 69.2321 29.3456 69.7664ZM23.5239 54.2689L24.5741 64.7665C25.2773 64.7632 26.0285 64.7383 26.8279 64.6918C27.6272 64.6453 28.3586 64.5889 29.0219 64.5225C30.3155 64.3931 31.5012 64.1908 32.5792 63.9154C33.6903 63.6368 34.6239 63.2586 35.3802 62.781C36.1662 62.2668 36.7566 61.6383 37.1512 60.8953C37.5791 60.149 37.7382 59.2286 37.6287 58.134C37.433 56.1771 36.5838 54.8886 35.0813 54.2684C33.5788 53.6483 31.5671 53.4643 29.0464 53.7164L23.5239 54.2689ZM23.0312 49.3435L27.4591 48.9005C29.8472 48.6616 31.688 48.1425 32.9815 47.3431C34.2717 46.5105 34.8288 45.2153 34.653 43.4574C34.4871 41.799 33.6562 40.6929 32.1603 40.139C30.6975 39.5819 28.8385 39.4161 26.5831 39.6417C25.6212 39.738 24.7605 39.8408 24.0009 39.9503C23.2746 40.0565 22.6494 40.1693 22.1253 40.2887L23.0312 49.3435Z" fill="white"/>
<path d="M61.6063 51.466C62.354 50.6808 63.1663 49.8107 64.0433 48.8556C64.9194 47.8673 65.7788 46.8793 66.6216 45.8918C67.4977 44.9034 68.3251 43.9662 69.1037 43.0803C69.8815 42.161 70.5292 41.3783 71.0469 40.7321L78.1448 40.5587C77.4328 41.443 76.6063 42.4135 75.6652 43.4701C74.7574 44.5259 73.8004 45.6163 72.7942 46.7412C71.8206 47.832 70.8465 48.9061 69.8721 49.9636C68.9301 50.9869 68.0691 51.9082 67.2888 52.7275C68.343 53.5687 69.4342 54.559 70.5624 55.6984C71.7231 56.8037 72.8525 57.9932 73.9506 59.2667C75.0812 60.5061 76.1293 61.7809 77.095 63.091C78.0598 64.3678 78.8726 65.565 79.5334 66.6825L72.5355 66.8535C71.8779 65.8693 71.1025 64.838 70.2092 63.7595C69.3493 62.6801 68.4401 61.6354 67.4818 60.6252C66.5227 59.5816 65.5486 58.6051 64.5594 57.6957C63.5702 56.7862 62.6176 56.0093 61.7016 55.3648L61.9887 67.1113L55.9405 67.2591L55.3016 41.1169L61.3498 40.9691L61.6063 51.466Z" fill="white"/>
<path d="M110.92 41.7138C107.791 51.5206 104.27 60.3761 100.356 68.2803C99.6253 69.7499 98.8869 71.0024 98.1413 72.0377C97.3956 73.073 96.5747 73.9215 95.6785 74.5832C94.7822 75.2449 93.7948 75.7025 92.7161 75.9559C91.6359 76.2426 90.3965 76.3556 88.9979 76.2948C88.0654 76.2543 87.1373 76.1139 86.2135 75.8735C85.3231 75.6347 84.6498 75.3885 84.1937 75.1352L85.5032 70.3375C86.6818 70.8558 87.8539 71.1403 89.0194 71.1909C90.5846 71.2589 91.8168 70.9288 92.7159 70.2004C93.6469 69.5069 94.4794 68.392 95.2135 66.8557C93.4744 63.11 91.8164 59.0342 90.2395 54.6283C88.6959 50.2238 87.3471 45.5608 86.193 40.6394L92.6369 40.9194C92.9091 42.3326 93.2429 43.8652 93.6382 45.5172C94.0669 47.1707 94.5273 48.859 95.0197 50.582C95.5135 52.2717 96.0406 53.9628 96.6009 55.6554C97.1613 57.348 97.7268 58.924 98.2973 60.3835C99.4917 57.4659 100.628 54.3623 101.705 51.0726C102.783 47.7496 103.774 44.5396 104.676 41.4425L110.92 41.7138Z" fill="white"/>
<path d="M118.906 55.5292C119.112 53.6069 119.603 51.8493 120.378 50.2562C121.156 48.6301 122.158 47.2626 123.383 46.1538C124.642 45.0487 126.104 44.2335 127.769 43.7085C129.435 43.1834 131.262 43.0277 133.251 43.2414C135.703 43.5049 137.975 44.2016 140.066 45.3315L138.245 50.1142C137.581 49.7412 136.812 49.4071 135.939 49.1121C135.098 48.8207 134.181 48.6216 133.187 48.5147C130.834 48.2619 128.964 48.8153 127.577 50.175C126.194 51.5015 125.359 53.507 125.07 56.1916C124.793 58.7767 125.152 60.8938 126.148 62.543C127.148 64.1591 129.023 65.1149 131.774 65.4105C132.801 65.5209 133.823 65.53 134.838 65.438C135.854 65.346 136.742 65.19 137.504 64.9701L137.815 70.0323C137.116 70.2925 136.073 70.4821 134.686 70.6013C133.332 70.724 131.942 70.7088 130.517 70.5556C128.296 70.317 126.393 69.7773 124.807 68.9364C123.258 68.0659 122.001 66.9753 121.035 65.6647C120.106 64.3245 119.466 62.7973 119.114 61.0832C118.765 59.3359 118.696 57.4846 118.906 55.5292Z" fill="white"/>
<path d="M168.892 75.8372L162.935 74.7845L164.84 64.0015L155.14 62.2876L153.235 73.0706L147.277 72.0179L151.827 46.2668L157.785 47.3195L156.01 57.3639L165.71 59.0778L167.485 49.0334L173.443 50.0861L168.892 75.8372Z" fill="white"/>
<path d="M207.293 71.5958C206.784 73.5987 206.029 75.35 205.028 76.8496C204.028 78.3492 202.846 79.5448 201.485 80.4366C200.123 81.3284 198.6 81.9042 196.918 82.164C195.267 82.4321 193.538 82.336 191.729 81.8758C189.92 81.4156 188.354 80.6734 187.033 79.6493C185.711 78.6252 184.665 77.3961 183.895 75.9619C183.125 74.5278 182.642 72.9088 182.447 71.1052C182.285 69.3097 182.459 67.4106 182.968 65.4077C183.478 63.4048 184.229 61.6697 185.221 60.2024C186.254 58.7111 187.451 57.5195 188.813 56.6277C190.207 55.7442 191.726 55.1845 193.368 54.9488C195.018 54.6807 196.732 54.7727 198.508 55.2247C200.285 55.6766 201.834 56.4147 203.156 57.4388C204.518 58.4388 205.584 59.6559 206.355 61.0901C207.125 62.5242 207.591 64.139 207.753 65.9345C207.956 67.7059 207.803 69.593 207.293 71.5958ZM201.285 70.0673C201.926 67.5476 201.882 65.4211 201.154 63.688C200.465 61.9308 199.152 60.8057 197.214 60.3126C195.276 59.8195 193.568 60.1763 192.092 61.3829C190.656 62.5654 189.618 64.4165 188.977 66.9362C188.328 69.4883 188.347 71.6429 189.035 73.4001C189.755 75.1655 191.085 76.2948 193.023 76.7879C194.961 77.2809 196.652 76.9201 198.096 75.7053C199.573 74.4987 200.636 72.6193 201.285 70.0673Z" fill="white"/>
<path d="M217.154 74.6177C217.756 72.7807 218.603 71.1638 219.692 69.7672C220.792 68.3389 222.057 67.2102 223.487 66.3812C224.948 65.5625 226.548 65.07 228.286 64.9035C230.025 64.7371 231.844 64.9656 233.744 65.5889C236.088 66.3578 238.165 67.5126 239.975 69.0535L237.197 73.3517C236.625 72.8485 235.943 72.3616 235.15 71.891C234.389 71.4309 233.533 71.0449 232.583 70.7333C230.334 69.9956 228.39 70.1472 226.751 71.1881C225.122 72.1973 223.887 73.9846 223.045 76.5501C222.235 79.0206 222.145 81.1661 222.775 82.9867C223.416 84.7756 225.051 86.1013 227.68 86.9636C228.662 87.2857 229.659 87.5075 230.672 87.6292C231.684 87.7508 232.586 87.7834 233.376 87.7269L232.625 92.7428C231.888 92.8517 230.828 92.8199 229.447 92.6473C228.097 92.4851 226.741 92.1806 225.379 91.7339C223.257 91.0378 221.508 90.1133 220.132 88.9603C218.798 87.7861 217.796 86.4575 217.124 84.9744C216.495 83.4701 216.187 81.8429 216.2 80.0931C216.223 78.3115 216.541 76.4864 217.154 74.6177Z" fill="white"/>
<path d="M267.597 84.4189L259.749 81.2884L251.932 100.887L246.312 98.6456L254.129 79.047L246.327 75.9351L248.198 71.2444L269.468 79.7282L267.597 84.4189Z" fill="white"/>
<path d="M300.754 94.3469L289.392 117.899L283.988 115.292C284.813 113.581 285.631 111.885 286.443 110.203C287.284 108.537 288.052 106.983 288.747 105.542C289.472 104.115 290.088 102.876 290.595 101.826C291.147 100.759 291.546 99.971 291.792 99.4607C290.326 100.197 288.773 101.039 287.131 101.987C285.49 102.934 283.848 103.882 282.207 104.829C280.596 105.791 279.044 106.745 277.551 107.691C276.059 108.636 274.737 109.497 273.585 110.274L268.766 107.949L280.129 84.3966L285.488 86.9819C284.648 88.7232 283.829 90.3822 283.031 91.9589C282.278 93.5201 281.59 94.9461 280.967 96.2371C280.344 97.528 279.786 98.6466 279.293 99.5928C278.829 100.554 278.474 101.289 278.228 101.799C279.692 100.914 281.2 100.013 282.752 99.0966C284.319 98.1501 285.864 97.2486 287.388 96.3922C288.956 95.5202 290.472 94.716 291.938 93.9797C293.403 93.2433 294.781 92.6126 296.071 92.0874L300.754 94.3469Z" fill="white"/>
</svg>
