<svg width="409" height="134" viewBox="0 0 409 134" fill="none" xmlns="http://www.w3.org/2000/svg">
<path d="M56.5022 111.313C55.2646 110.503 54.0237 109.714 52.7792 108.949C51.5347 108.183 50.2834 107.382 49.0252 106.545L36.8974 114.674C37.3803 116.03 37.839 117.382 38.2735 118.731C38.715 120.035 39.1565 121.339 39.598 122.643L34.1571 126.29C32.9361 122.669 31.836 119.306 30.8566 116.203C29.8773 113.099 28.9739 110.145 28.1465 107.34C27.3468 104.516 26.6161 101.806 25.9545 99.2095C25.2929 96.6132 24.6797 94.0243 24.1149 91.443L29.0574 88.1303C31.5604 89.4125 34.0565 90.7393 36.5455 92.1108C39.0346 93.4823 41.6066 94.9583 44.2615 96.5386C46.9441 98.1004 49.7442 99.7835 52.6618 101.588C55.607 103.373 58.77 105.353 62.1507 107.527L56.5022 111.313ZM30.6487 95.1033C31.1105 96.9137 31.7137 99.0892 32.4583 101.63C33.2307 104.152 34.0963 106.872 35.055 109.789L44.5247 103.442C41.7938 101.712 39.215 100.121 36.7883 98.6678C34.3615 97.2145 32.315 96.0263 30.6487 95.1033Z" fill="white"/>
<path d="M75.7055 77.0493L68.2345 80.9974L79.3657 98.9224L74.0167 101.749L62.8855 83.8241L55.4588 87.7489L52.7947 83.4588L73.0414 72.7591L75.7055 77.0493Z" fill="white"/>
<path d="M103.933 64.9691L96.1431 68.2436L105.421 87.1942L99.844 89.5387L90.5658 70.5881L82.8221 73.8432L80.6015 69.3077L101.712 60.4336L103.933 64.9691Z" fill="white"/>
<path d="M133.86 63.7344C132.946 61.1936 131.647 59.4017 129.962 58.3586C128.31 57.3056 126.195 57.1823 123.618 57.9889C123.077 58.1581 122.516 58.3687 121.934 58.6207C121.373 58.8313 120.834 59.1046 120.318 59.4406L125.377 73.5087C126.01 73.6944 126.796 73.8147 127.736 73.8694C128.697 73.8829 129.654 73.7403 130.608 73.4416C132.708 72.7844 133.981 71.6007 134.428 69.8905C134.906 68.1703 134.717 66.1182 133.86 63.7344ZM139.743 61.7882C140.42 63.6702 140.785 65.4751 140.84 67.2027C140.927 68.9204 140.712 70.4883 140.196 71.9062C139.68 73.3242 138.834 74.5659 137.66 75.6314C136.518 76.6868 135.072 77.4884 133.322 78.0361C132.145 78.4045 131.013 78.6019 129.925 78.6282C128.838 78.6546 127.914 78.5949 127.153 78.449L130.588 88.0002L124.814 89.8074L113.123 57.2956C114.187 56.6136 115.527 55.8625 117.144 55.0425C118.76 54.2225 120.522 53.5138 122.431 52.9164C124.403 52.2991 126.276 52.0444 128.049 52.1525C129.822 52.2606 131.453 52.7099 132.94 53.5006C134.448 54.2499 135.776 55.3348 136.924 56.7553C138.093 58.1345 139.032 59.8121 139.743 61.7882Z" fill="white"/>
<path d="M162.07 65.7969C163.897 65.414 165.26 65.026 166.161 64.633L164.629 58.1104C164.28 58.0814 163.784 58.0833 163.141 58.1158C162.498 58.1484 161.802 58.2433 161.051 58.4006C160.399 58.5374 159.742 58.7263 159.079 58.9672C158.45 59.2013 157.888 59.5063 157.394 59.8822C156.933 60.2512 156.597 60.7133 156.385 61.2684C156.165 61.7911 156.14 62.4094 156.307 63.1233C156.635 64.5187 157.304 65.3999 158.314 65.7669C159.317 66.1015 160.569 66.1115 162.07 65.7969ZM156.425 43.9467C158.382 43.5364 160.087 43.4345 161.539 43.6409C162.991 43.8472 164.211 44.3064 165.2 45.0185C166.221 45.7237 167.044 46.6749 167.667 47.8721C168.315 49.03 168.815 50.3553 169.166 51.848L172.789 67.2782C171.922 67.6644 170.588 68.1822 168.79 68.8316C167.031 69.5066 164.994 70.0868 162.678 70.5724C161.144 70.8938 159.707 71.0418 158.366 71.0164C157.025 70.9911 155.822 70.7497 154.756 70.2921C153.723 69.8277 152.823 69.1311 152.057 68.2021C151.324 67.2662 150.778 66.0357 150.42 64.5105C150.077 63.0503 150.065 61.759 150.383 60.6368C150.734 59.5078 151.327 58.5324 152.161 57.7107C152.987 56.8565 154.006 56.1663 155.217 55.64C156.454 55.0744 157.773 54.6445 159.176 54.3505C159.829 54.2137 160.525 54.1188 161.266 54.0657C161.999 53.9801 162.796 53.9492 163.657 53.973L163.429 52.9995C163.269 52.318 163.035 51.6861 162.727 51.1037C162.419 50.5214 161.999 50.0475 161.469 49.6821C160.963 49.2774 160.337 49.017 159.591 48.901C158.877 48.7782 158.015 48.8228 157.003 49.0348C155.633 49.322 154.4 49.6826 153.304 50.1167C152.208 50.5507 151.331 50.9728 150.675 51.3828L148.82 46.7665C149.51 46.3496 150.542 45.8609 151.916 45.3004C153.291 44.7399 154.794 44.2887 156.425 43.9467Z" fill="white"/>
<path d="M188.435 49.8646C189.106 49.0167 189.833 48.0786 190.617 47.0502C191.396 45.9887 192.159 44.929 192.906 43.8713C193.685 42.8098 194.421 41.8036 195.113 40.8526C195.801 39.8686 196.373 39.032 196.827 38.3429L203.882 37.5408C203.256 38.4842 202.524 39.5235 201.686 40.6588C200.882 41.7903 200.031 42.9605 199.135 44.1694C198.268 45.3415 197.399 46.4971 196.528 47.6361C195.686 48.7382 194.915 49.7317 194.215 50.6164C195.345 51.3602 196.525 52.2492 197.757 53.2833C199.017 54.2806 200.255 55.3644 201.469 56.5348C202.712 57.6682 203.876 58.8442 204.962 60.0626C206.044 61.248 206.966 62.3676 207.73 63.4214L200.775 64.2122C200.027 63.2908 199.157 62.3329 198.165 61.3386C197.207 60.3405 196.203 59.3812 195.153 58.4606C194.099 57.5069 193.036 56.6213 191.965 55.8038C190.894 54.9862 189.872 54.2973 188.898 53.737L190.292 65.404L184.281 66.0875L181.178 40.1223L187.19 39.4388L188.435 49.8646Z" fill="white"/>
<path d="M241.532 57.6548L241.535 70.0048L236.185 70.0805L236.184 62.6805L215.886 62.9679L215.881 36.8179L221.93 36.7323L221.934 57.9323L231.533 57.7964L231.529 36.5964L237.579 36.5107L237.583 57.7107L241.532 57.6548Z" fill="white"/>
<path d="M276.61 39.0245L273.394 64.976L267.418 64.4397C267.651 62.5541 267.883 60.6851 268.113 58.8326C268.375 56.9831 268.605 55.2644 268.802 53.6765C269.032 52.0917 269.219 50.7203 269.362 49.5625C269.543 48.3746 269.668 47.4995 269.738 46.9371C268.582 48.1379 267.376 49.4679 266.121 50.9274C264.866 52.3868 263.611 53.8462 262.356 55.3057C261.134 56.7681 259.966 58.2019 258.852 59.6071C257.738 61.0123 256.759 62.279 255.914 63.4074L250.585 62.9292L253.802 36.9777L259.728 37.5095C259.49 39.4282 259.246 41.2626 258.995 43.0129C258.782 44.7331 258.587 46.3044 258.411 47.7269C258.235 49.1493 258.064 50.3883 257.9 51.4439C257.769 52.5025 257.668 53.3129 257.599 53.8753C258.705 52.5363 259.848 51.1671 261.028 49.7679C262.213 48.3356 263.391 46.9529 264.564 45.6198C265.773 44.2567 266.956 42.9747 268.112 41.774C269.268 40.5732 270.374 39.5018 271.431 38.5597L276.61 39.0245Z" fill="white"/>
<path d="M311.452 58.2081C310.953 60.2136 310.203 61.9837 309.204 63.5186C308.204 65.0534 307.019 66.2979 305.649 67.252C304.28 68.206 302.745 68.8567 301.047 69.204C299.38 69.5576 297.631 69.556 295.799 69.199C293.967 68.842 292.379 68.1934 291.035 67.2533C289.691 66.3131 288.624 65.1557 287.834 63.7809C287.045 62.4061 286.544 60.8333 286.334 59.0626C286.155 57.2982 286.316 55.4133 286.816 53.4079C287.315 51.4025 288.061 49.6485 289.052 48.146C290.085 46.6175 291.286 45.3762 292.656 44.4222C294.058 43.4745 295.588 42.84 297.246 42.5187C298.912 42.165 300.645 42.1635 302.445 42.5141C304.244 42.8647 305.816 43.5101 307.16 44.4502C308.545 45.3644 309.632 46.5089 310.421 47.8837C311.211 49.2585 311.695 50.8281 311.873 52.5924C312.092 54.3308 311.952 56.2027 311.452 58.2081ZM305.367 57.0224C305.995 54.4995 305.934 52.4019 305.184 50.7296C304.475 49.0313 303.139 47.991 301.176 47.6085C299.213 47.226 297.49 47.6703 296.007 48.9415C294.565 50.1866 293.53 52.0707 292.901 54.5936C292.265 57.1489 292.301 59.2757 293.01 60.9739C293.752 62.6786 295.105 63.7221 297.068 64.1046C299.031 64.4871 300.737 64.0396 302.188 62.7621C303.671 61.4909 304.73 59.5777 305.367 57.0224Z" fill="white"/>
<path d="M338.979 79.4562L333.191 77.6973L337.066 67.4558L327.641 64.5921L323.766 74.8336L317.977 73.0747L327.231 48.6168L333.02 50.3757L329.41 59.9157L338.835 62.7794L342.444 53.2394L348.233 54.9983L338.979 79.4562Z" fill="white"/>
<path d="M379.036 95.5045L373.497 93.071L385.894 70.0462L391.433 72.4798L379.036 95.5045ZM363.238 70.5987C363.758 70.6825 364.47 70.868 365.372 71.1554C366.304 71.4562 367.182 71.7876 368.006 72.1496C369.319 72.7261 370.476 73.4159 371.477 74.2189C372.509 75.0353 373.279 75.954 373.786 76.9751C374.339 77.9803 374.591 79.0891 374.542 80.3015C374.539 81.498 374.175 82.7713 373.448 84.1213C372.705 85.5008 371.829 86.5675 370.819 87.3215C369.809 88.0755 368.696 88.5663 367.479 88.7938C366.262 89.0213 364.949 89.0069 363.54 88.7507C362.161 88.5079 360.724 88.058 359.229 87.401C357.489 86.6368 355.889 85.8247 354.427 84.9648C352.996 84.1183 351.582 83.1703 350.185 82.1209L362.273 59.6685L367.812 62.102L363.238 70.5987ZM361.343 83.1584C362.778 83.7885 364.057 84.0058 365.181 83.8102C366.352 83.5986 367.277 82.8618 367.956 81.5998C368.304 80.9541 368.459 80.3508 368.421 79.7899C368.384 79.2289 368.192 78.7091 367.846 78.2305C367.546 77.7359 367.122 77.2958 366.575 76.9102C366.059 76.5381 365.48 76.2112 364.839 75.9296C364.259 75.6749 363.603 75.4227 362.869 75.173C362.182 74.9074 361.578 74.7327 361.057 74.649L357.525 81.2086C357.89 81.4416 358.438 81.7551 359.17 82.149C359.917 82.5135 360.641 82.85 361.343 83.1584Z" fill="white"/>
</svg>
