<svg width="493" height="336" viewBox="0 0 493 336" fill="none" xmlns="http://www.w3.org/2000/svg">
<path d="M271.107 1.09296C274.416 0.584882 280.861 2.36182 283.751 4.57941C284.365 5.05023 284.957 5.54897 285.589 5.98611C296.93 13.7978 299.878 28.9084 292.288 40.3449C291.683 41.2532 291.089 42.1743 290.538 43.1123C289.763 44.4261 290.11 45.3195 291.594 45.7678C293.088 46.2186 294.592 46.6526 296.054 47.1823C312.841 53.2168 328.913 60.7713 344.095 70.1431C350.145 73.8788 355.917 78.0584 360.239 83.8669C365.192 90.5254 364.809 97.7999 359.149 103.911C358.008 105.143 357.953 105.922 359.007 107.248C362.737 111.959 366.482 116.67 369.921 121.593C373.674 126.962 377.054 132.593 380.674 138.057C382.218 140.39 382.666 140.368 384.894 138.632C392.79 132.481 400.855 126.585 410.162 122.666C420.651 118.251 431.475 116.04 442.841 117.928C461.432 121.016 474.422 131.851 483.049 148.094C491.401 163.819 493.296 180.863 491.848 198.4C491.542 202.116 491.039 205.81 490.625 209.515L486.636 223.983C486.328 224.516 485.957 225.017 485.733 225.582C481.889 235.313 476.832 244.349 470.198 252.459C449.315 277.987 421.839 291.792 389.907 297.611C378.016 299.777 366.011 299.965 353.981 299.605C351.287 299.524 348.748 299.812 346.482 301.6C335.616 310.183 323.635 316.872 310.826 322.019C273.994 336.815 236.164 338.717 197.703 330.132C169.372 323.809 143.457 311.999 120.355 294.289C101.289 279.672 85.5636 262.118 74.0175 240.935C66.7473 227.595 61.6948 213.456 58.7713 198.557C58.3963 196.639 57.6752 195.306 55.757 194.544C53.5146 193.653 51.3786 192.5 49.2206 191.409C33.846 183.652 23.9846 171.427 19.4817 154.784C16.7514 144.7 16.4781 134.394 16.6971 124.082C17.1109 104.411 17.9507 84.7454 18.3258 65.0732C18.5215 54.7407 17.3704 44.499 14.929 34.4074C12.2023 23.1475 5.9656 13.5323 0.78564 3.41544C0.951433 2.81412 1.11847 2.20829 1.28427 1.60697C3.97225 1.37513 6.66369 0.954507 9.35257 0.966153C11.8323 0.978511 14.3357 1.3282 16.7907 1.74727C25.013 3.13864 33.2478 4.48481 41.4209 6.12531C46.0074 7.04449 49.4968 9.70441 51.3373 14.2205C53.8141 20.2888 56.4813 26.2831 58.7906 32.4123C63.307 44.3894 67.4931 56.4896 72.0967 68.4324C74.5141 74.6983 77.6247 80.6884 82.248 85.7042C86.9687 90.8247 90.1056 90.921 95.0368 86.3601C111.835 70.8171 131.093 59.3772 152.697 51.8921C156.855 50.4506 156.866 50.4827 156.333 46.0546C155.412 38.3771 157.815 33.5569 165.097 30.9234C170.391 29.0118 176.053 27.5958 181.646 27.1384C202.43 25.4452 222.871 28.5904 243.2 32.5122C246.615 33.1714 246.711 33.1737 246.532 29.8064C245.9 17.8398 250.845 8.841 261.114 4.05897C264.237 2.60419 267.772 2.04666 271.119 1.08188L271.107 1.09296ZM468.45 212.129C473 195.028 473.168 179.58 467.512 164.438C463.282 153.113 456.903 143.751 444.418 139.788C434.417 136.617 425.182 137.559 416.3 142.826C407.407 148.099 400.526 155.464 394.634 163.9C392.842 166.466 392.368 168.734 393.143 171.842C400.241 200.313 396.709 227.803 385.036 254.455C383.63 257.668 381.765 260.68 380.315 263.876C378.714 267.409 379.138 268.197 382.551 269.902C390.196 273.722 398.122 273.314 406.1 271.398C414.847 269.3 422.842 265.399 430.411 260.632C449.387 248.681 462.624 232.288 468.442 212.122L468.45 212.129Z" fill="#9DC4AD"/>
</svg>
