<svg width="636" height="543" viewBox="0 0 636 543" fill="none" xmlns="http://www.w3.org/2000/svg">
<rect x="303.07" y="275.052" width="11.683" height="265.955" rx="5.84152" transform="rotate(59.7221 303.07 275.052)" fill="#9DB8D6"/>
<path d="M262.238 144.169C255.298 148.398 247.214 151.854 241.249 157.492C236.592 160.211 226.194 185.281 225.739 190.307C224.836 200.276 215.065 206.665 208.937 213.188C179.618 244.395 211.946 290.308 228.338 319.836L228.724 320.531C244.709 349.328 261.198 379.033 291.599 394.218C304.119 400.472 303.921 392.265 316.721 397.802C327.917 402.644 341.473 401.649 353.206 399.931C382.041 395.71 412.908 394.042 434.652 372.523C447.382 359.924 467.536 361.896 480.322 349.394C489.867 340.061 502.095 332.895 508.688 320.912C518.371 303.313 523.812 284.926 537.009 269.19C549.254 254.589 563.746 244.143 571.483 226.044C578.172 210.397 579.907 196.954 575.148 180.66C570.953 166.3 568.239 151.248 563.631 137.07C560.439 127.25 548.776 119.562 540.877 114.099C529.771 106.42 518.233 100.258 505.009 97.3046C476.809 91.0072 448.265 88.1687 419.616 85.6649C406.858 84.55 397.401 76.6057 385.246 74.2438C369.22 71.1298 354.275 81.935 340.677 88.5903C320.341 98.5442 300.886 103.567 285.755 121.56C278.434 130.266 272.099 138.161 262.238 144.169Z" fill="#9DB8D6"/>
</svg>
