<svg width="242" height="510" viewBox="0 0 242 510" fill="none" xmlns="http://www.w3.org/2000/svg">
<path d="M214.933 5.34531C215.003 6.47611 215.324 7.66208 215.093 8.72368C214.691 10.579 214.061 12.4106 213.34 14.174C201.305 43.675 189.19 73.1492 177.226 102.681C175.589 106.719 174.499 111.012 173.47 115.258C173.215 116.31 173.895 118.331 174.688 118.704C175.604 119.138 177.531 118.658 178.291 117.843C179.932 116.074 181.401 113.99 182.417 111.779C186.721 102.385 190.922 92.9333 194.99 83.4316C204.677 60.7867 214.263 38.0986 223.916 15.4321C224.35 14.4054 224.863 13.3239 225.617 12.5583C226.286 11.8811 227.338 11.6233 228.221 11.1766C228.416 12.2065 229.015 13.3638 228.736 14.251C227.208 19.1874 225.535 24.0841 223.778 28.9454C218.347 43.9595 212.739 58.9064 207.423 73.9624C202.11 89.0123 197.052 104.156 191.917 119.267C191.483 120.536 190.807 122.032 191.099 123.169C191.517 124.786 192.462 126.604 193.731 127.459C194.33 127.86 196.903 126.554 197.415 125.457C200.385 119.034 203.147 112.501 205.722 105.896C210.089 94.6862 214.36 83.436 218.497 72.1363C223.713 57.8893 228.748 43.5725 233.868 29.2849C235.083 25.9035 236.129 22.436 237.619 19.1864C238.158 18.006 239.763 17.3374 240.882 16.4332C241.138 17.8632 241.854 19.3858 241.57 20.6966C240.536 25.4174 239.368 30.125 237.893 34.7245C230.814 56.8852 223.863 79.0929 216.398 101.119C210.586 118.261 204.41 135.301 197.792 152.137C192.628 165.262 183.672 173.544 169.038 172.529C166.038 172.325 163.492 173.43 161.741 175.982C160.754 177.419 158.927 179.601 158.187 181.15C155.932 185.865 153.004 190.137 152.421 191.663C151.839 193.189 150.436 195.165 149.674 197.028C139.032 222.967 128.402 248.911 117.829 274.871C112.398 288.205 106.654 301.427 101.833 314.983C96.535 329.893 91.7827 345.027 87.461 360.256C83.8696 372.911 81.4268 385.892 78.0964 398.629C76.9127 403.168 74.6086 407.415 72.6039 412.318C75.5683 417.747 75.1167 419.794 69.4633 422.962C70.7036 426.902 69.7985 429.938 65.7684 431.895C64.7879 432.374 64.1879 434.321 63.8991 435.696C62.3363 443.047 60.8912 450.419 59.4904 457.802C59.0337 460.221 58.9718 462.72 58.4588 465.123C58.1376 466.645 57.315 468.057 56.4942 470.064C62.0961 485.166 58.3235 493.809 46.005 494.945C44.2866 498.633 43.4012 502.426 41.1617 504.887C38.3544 507.966 34.5268 506.515 31.1485 504.823C26.3848 510.579 20.8324 509.936 15.2278 507.092C10.6668 504.779 7.79812 501.137 8.58351 495.43C-0.395144 491.174 -1.14433 486.546 5.85464 478.357C5.28672 477.741 4.70686 477.12 4.14063 476.483C-2.42721 469.038 1.78378 461.55 8.1803 456.033C10.1266 454.357 13.2617 454.075 14.9965 452.265C16.635 450.554 16.829 447.458 18.1998 445.339C23.2386 437.557 28.5776 429.983 33.5926 422.191C34.4144 420.918 34.6307 418.83 34.3508 417.287C33.6606 413.492 35.7066 411.675 38.4775 410.262C36.7066 403.696 37.6238 402.207 44.5656 400.136C45.6593 392.167 50.1749 385.785 53.9963 379.129C62.7516 363.869 72.2948 349.046 80.3654 333.421C88.0772 318.503 94.66 302.936 101.148 287.394C114.205 256.133 126.861 224.701 139.655 193.328C140.918 190.239 142.096 186.156 142.829 183.887C143.78 180.944 144.493 178.21 145.02 174.953C145.365 172.821 145.644 171.116 146.005 168.884C146.533 165.616 144.885 163.268 142.453 161.06C134.77 154.081 131.995 144.967 134.556 134.678C136.278 127.776 139.155 121.101 141.958 114.519C145.258 106.775 148.876 99.1602 152.63 91.6246C160.682 75.4632 168.778 59.3134 177.094 43.2938C184.104 29.7653 191.454 16.4177 198.65 2.98289C198.969 2.39171 199.112 1.52768 199.582 1.23555C200.426 0.713466 201.467 0.532018 202.418 0.209749C202.658 1.09703 203.271 2.099 203.055 2.85111C202.342 5.33022 201.453 7.77835 200.401 10.1279C195.92 20.1801 191.366 30.202 186.825 40.2288C179.221 57.0066 171.547 73.7538 164.015 90.562C161.531 96.1051 159.275 101.76 157.161 107.46C156.778 108.501 157.594 110 157.851 111.291C159.062 110.778 160.841 110.624 161.386 109.704C163.423 106.246 165.065 102.54 166.846 98.9219C173.331 85.7354 179.899 72.5844 186.274 59.3434C191.192 49.1317 195.774 38.7478 200.689 28.5273C203.939 21.7612 207.468 15.1355 210.98 8.50226C211.674 7.19738 212.85 6.15561 213.8 4.99616C214.174 5.11085 214.553 5.22808 214.927 5.34277L214.933 5.34531Z" fill="#9DB8D6"/>
</svg>
