<svg width="241" height="510" viewBox="0 0 241 510" fill="none" xmlns="http://www.w3.org/2000/svg">
<path d="M213.981 5.31637C214.051 6.44714 214.373 7.63296 214.142 8.69467C213.742 10.5502 213.113 12.382 212.392 14.1458C200.371 43.6524 188.269 73.1323 176.32 102.669C174.684 106.709 173.596 111.002 172.57 115.249C172.315 116.3 172.996 118.321 173.789 118.694C174.705 119.127 176.632 118.646 177.392 117.831C179.032 116.062 180.5 113.977 181.515 111.766C185.814 102.37 190.011 92.9156 194.074 83.412C203.751 60.7625 213.326 38.0699 222.969 15.399C223.402 14.372 223.914 13.2903 224.668 12.5243C225.337 11.8469 226.388 11.5885 227.271 11.1414C227.467 12.1713 228.066 13.3283 227.788 14.2156C226.262 19.1527 224.592 24.0502 222.837 28.9123C217.413 43.929 211.812 58.8785 206.503 73.937C201.197 88.9893 196.147 104.136 191.019 119.249C190.584 120.518 190.202 121.982 190.202 123.152C190.203 123.982 190.836 126.127 192.105 126.981C193.374 127.836 196.008 126.533 196.519 125.437C199.486 119.012 202.245 112.478 204.817 105.871C209.178 94.6596 213.444 83.4074 217.576 72.1057C222.786 57.8563 227.813 43.5371 232.927 29.2471C234.14 25.8651 235.185 22.3971 236.674 19.1468C237.212 17.9662 238.816 17.2968 239.935 16.3921C240.192 17.822 240.908 19.3443 240.625 20.6551C239.593 25.3764 238.427 30.0846 236.955 34.6848C229.886 56.8488 222.946 79.0597 215.491 101.089C209.687 118.235 203.519 135.277 196.909 152.117C191.751 165.243 182.798 173.53 168.164 172.521C165.165 172.319 162.619 173.426 160.869 175.978C159.882 177.416 158.057 179.599 157.317 181.148C155.065 185.864 152.138 190.138 151.556 191.664C150.975 193.19 149.573 195.166 148.812 197.03C138.182 222.974 127.565 248.922 117.003 274.888C111.578 288.224 105.841 301.449 101.026 315.008C95.7352 329.92 90.99 345.056 86.6755 360.287C83.0901 372.943 80.6534 385.926 77.329 398.664C76.1474 403.204 73.8453 407.452 71.8429 412.356C74.8098 417.783 74.3591 419.83 68.7073 423.001C69.9494 426.941 69.0457 429.977 65.0165 431.937C64.0363 432.416 63.4372 434.363 63.149 435.738C61.5897 443.09 60.148 450.462 58.7507 457.846C58.2952 460.266 58.2344 462.764 57.7226 465.167C57.4021 466.69 56.5801 468.102 55.7603 470.11C61.3693 485.209 57.6008 493.854 45.2828 494.995C43.5661 498.684 42.6825 502.478 40.4441 504.94C37.6383 508.02 33.81 506.571 30.4309 504.88C25.6699 510.638 20.1172 509.998 14.5113 507.156C9.9492 504.846 7.0788 501.206 7.86151 495.498C-1.11914 491.246 -1.87051 486.619 5.12462 478.426C4.55641 477.81 3.97627 477.19 3.40975 476.553C-3.16159 469.111 1.04588 461.621 7.4398 456.101C9.38534 454.424 12.5202 454.14 14.2542 452.33C15.892 450.618 16.0845 447.522 17.4543 445.403C22.4895 437.618 27.8249 430.042 32.8362 422.247C33.6574 420.974 33.8727 418.886 33.5921 417.343C32.9001 413.548 34.9453 411.731 37.7155 410.316C35.9415 403.751 36.858 402.261 43.7988 400.188C44.8888 392.218 49.4014 385.833 53.2197 379.176C61.9678 363.912 71.5041 349.084 79.5674 333.456C87.2721 318.533 93.8476 302.963 100.328 287.419C113.37 256.151 126.012 224.713 138.791 193.334C140.053 190.244 141.228 186.161 141.961 183.892C142.911 180.948 143.622 178.214 144.148 174.957C144.492 172.825 144.769 171.119 145.129 168.888C145.657 165.619 144.007 163.272 141.574 161.065C133.887 154.089 131.108 144.977 133.664 134.687C135.383 127.784 138.257 121.107 141.057 114.524C144.353 106.779 147.968 99.1623 151.718 91.6249C159.763 75.4598 167.851 59.3061 176.16 43.2826C183.164 29.7508 190.507 16.3998 197.697 2.9616C198.015 2.37027 198.158 1.50618 198.628 1.21383C199.471 0.691344 200.512 0.509407 201.464 0.186692C201.704 1.07386 202.317 2.07554 202.101 2.82776C201.39 5.30719 200.502 7.75574 199.451 10.1058C194.974 20.1601 190.426 30.1841 185.889 40.2131C178.294 56.9944 170.627 73.7453 163.103 90.557C160.622 96.1013 158.368 101.757 156.257 107.458C155.874 108.499 156.097 110.765 156.948 111.289C158.098 111.997 159.939 110.621 160.483 109.7C162.519 106.241 164.159 102.534 165.938 98.9155C172.417 85.726 178.979 72.5719 185.347 59.3279C190.26 49.1139 194.838 38.7279 199.748 28.5051C202.995 21.7374 206.521 15.1101 210.029 8.47518C210.723 7.16997 211.898 6.12766 212.848 4.96776C213.222 5.08227 213.601 5.19932 213.975 5.31384L213.981 5.31637Z" fill="#9DB8D6"/>
</svg>
