<svg width="311" height="476" viewBox="0 0 311 476" fill="none" xmlns="http://www.w3.org/2000/svg">
<path d="M286.688 7.38784C286.581 8.51574 286.713 9.73721 286.319 10.7498C285.634 12.5198 284.726 14.2307 283.739 15.8601C267.249 43.1229 250.685 70.3467 234.262 97.6507C232.015 101.384 230.268 105.455 228.59 109.489C228.175 110.487 228.531 112.59 229.256 113.083C230.093 113.654 232.071 113.48 232.949 112.794C234.846 111.303 236.622 109.473 237.97 107.448C243.686 98.8401 249.311 90.159 254.81 81.408C267.911 60.5511 280.918 39.6357 293.989 18.7524C294.578 17.8059 295.252 16.8176 296.117 16.179C296.884 15.6145 297.962 15.5238 298.904 15.2203C298.937 16.2681 299.348 17.5046 298.934 18.3374C296.655 22.9751 294.238 27.551 291.745 32.0788C284.038 46.062 276.168 59.9512 268.568 73.9939C260.973 88.0308 253.615 102.201 246.186 116.326C245.559 117.511 244.952 118.898 244.769 120.053C244.64 120.873 244.93 123.09 246.049 124.133C247.169 125.175 249.975 124.301 250.651 123.298C254.586 117.416 258.334 111.394 261.907 105.271C267.969 94.8798 273.942 84.4335 279.791 73.9173C287.166 60.6583 294.372 47.3019 301.658 33.9879C303.385 30.8373 304.96 27.5755 306.939 24.598C307.655 23.5161 309.344 23.1059 310.591 22.3874C310.621 23.8398 311.09 25.4554 310.605 26.7058C308.848 31.2077 306.96 35.6754 304.786 39.9887C294.337 60.774 284.007 81.6257 273.198 102.218C264.783 118.244 256.025 134.112 246.862 149.71C239.715 161.868 229.576 168.652 215.28 165.367C212.348 164.698 209.661 165.393 207.533 167.64C206.334 168.906 204.189 170.776 203.216 172.19C200.254 176.496 196.695 180.259 195.882 181.675C195.068 183.092 193.375 184.825 192.331 186.546C177.774 210.508 163.228 234.476 148.735 258.47C141.291 270.793 133.555 282.958 126.678 295.596C119.12 309.497 112.065 323.705 105.421 338.073C99.8999 350.013 95.4622 362.455 90.1861 374.516C88.3088 378.815 85.3705 382.651 82.6257 387.181C84.707 393.006 83.9417 394.957 77.8633 397.205C78.4738 401.29 77.1063 404.148 72.8203 405.452C71.7771 405.772 70.8808 407.602 70.3811 408.915C67.6909 415.932 65.1136 422.989 62.5784 430.063C61.75 432.381 61.2991 434.84 60.4177 437.133C59.863 438.586 58.8302 439.853 57.7064 441.708C60.8844 457.498 55.8098 465.447 43.4649 464.648C41.1922 468.023 39.7261 471.631 37.1301 473.713C33.877 476.316 30.3225 474.287 27.2495 472.088C21.6464 477.03 16.2622 475.529 11.1698 471.846C7.0254 468.85 4.75979 464.805 6.42571 459.29C-1.77915 453.685 -1.79749 448.998 6.39318 442C5.92824 441.304 5.45232 440.6 4.99238 439.882C-0.333851 431.504 4.99354 424.764 12.1723 420.312C14.3561 418.961 17.4968 419.171 19.4927 417.654C21.3781 416.219 22.0526 413.191 23.737 411.313C29.928 404.412 36.3829 397.763 42.5519 390.848C43.5621 389.719 44.1015 387.69 44.0657 386.122C43.9758 382.267 46.2802 380.791 49.2375 379.827C48.5125 373.065 49.6507 371.737 56.8304 370.775C59.1537 363.074 64.6095 357.474 69.4222 351.496C80.4506 337.788 92.1889 324.635 102.598 310.46C112.542 296.927 121.472 282.577 130.305 268.238C148.078 239.395 165.482 210.322 183.012 181.329C184.742 178.474 186.541 174.625 187.62 172.498C189.019 169.74 190.149 167.15 191.178 164.015C191.851 161.964 192.392 160.322 193.097 158.175C194.129 155.029 192.866 152.453 190.808 149.892C184.308 141.8 182.989 132.365 187.123 122.601C189.901 116.052 193.783 109.907 197.579 103.843C202.046 96.7094 206.808 89.7517 211.691 82.8938C222.165 68.1861 232.681 53.4967 243.394 38.9701C252.428 26.7006 261.77 14.6627 270.973 2.51469C271.381 1.98048 271.657 1.14935 272.166 0.934058C273.081 0.550007 274.138 0.533149 275.128 0.363228C275.226 1.27703 275.676 2.36238 275.345 3.07152C274.254 5.40916 272.994 7.68868 271.589 9.84541C265.594 19.0756 259.533 28.2646 253.484 37.4604C243.356 52.8469 233.163 68.1922 223.102 83.6199C219.784 88.7078 216.674 93.9413 213.697 99.2422C213.156 100.21 213.022 102.483 213.78 103.134C214.805 104.013 216.839 102.942 217.52 102.117C220.072 99.0199 222.272 95.615 224.595 92.3191C233.057 80.3054 241.597 68.3398 249.958 56.2551C256.409 46.9355 262.555 37.3934 269.004 28.0646C273.269 21.8882 277.789 15.894 282.291 9.88957C283.181 8.70902 284.505 7.86337 285.624 6.86636C285.975 7.03789 286.332 7.21287 286.683 7.38441L286.688 7.38784Z" fill="#9DB8D6"/>
</svg>
